<svg width="406" height="264" viewBox="0 0 406 264" fill="none" xmlns="http://www.w3.org/2000/svg">
<rect width="406" height="264" rx="8" fill="#05192D"/>
<path d="M12.6 108L18.744 91.2H21.96L28.104 108H25.056L20.328 94.56L15.6 108H12.6ZM15.336 104.04L16.104 101.76H24.384L25.152 104.04H15.336ZM35.1429 108.288C34.0709 108.288 33.1349 108.12 32.3349 107.784C31.5509 107.432 30.9269 106.952 30.4629 106.344C30.0149 105.72 29.7509 105.008 29.6709 104.208H32.5509C32.6309 104.544 32.7749 104.856 32.9829 105.144C33.1909 105.416 33.4709 105.632 33.8229 105.792C34.1909 105.952 34.6229 106.032 35.1189 106.032C35.5989 106.032 35.9909 105.968 36.2949 105.84C36.5989 105.696 36.8229 105.512 36.9669 105.288C37.1109 105.064 37.1829 104.824 37.1829 104.568C37.1829 104.184 37.0789 103.888 36.8709 103.68C36.6629 103.472 36.3589 103.312 35.9589 103.2C35.5749 103.072 35.1109 102.952 34.5669 102.84C33.9909 102.728 33.4309 102.592 32.8869 102.432C32.3589 102.256 31.8789 102.04 31.4469 101.784C31.0309 101.528 30.6949 101.2 30.4389 100.8C30.1989 100.4 30.0789 99.912 30.0789 99.336C30.0789 98.632 30.2629 98 30.6309 97.44C31.0149 96.88 31.5589 96.44 32.2629 96.12C32.9829 95.784 33.8389 95.616 34.8309 95.616C36.2389 95.616 37.3589 95.944 38.1909 96.6C39.0389 97.24 39.5349 98.144 39.6789 99.312H36.9429C36.8629 98.864 36.6389 98.52 36.2709 98.28C35.9029 98.024 35.4149 97.896 34.8069 97.896C34.1829 97.896 33.7029 98.016 33.3669 98.256C33.0469 98.48 32.8869 98.784 32.8869 99.168C32.8869 99.408 32.9829 99.632 33.1749 99.84C33.3829 100.032 33.6789 100.2 34.0629 100.344C34.4469 100.472 34.9189 100.6 35.4789 100.728C36.3749 100.904 37.1669 101.112 37.8549 101.352C38.5429 101.592 39.0869 101.944 39.4869 102.408C39.8869 102.872 40.0869 103.528 40.0869 104.376C40.1029 105.144 39.9029 105.824 39.4869 106.416C39.0869 107.008 38.5189 107.472 37.7829 107.808C37.0469 108.128 36.1669 108.288 35.1429 108.288ZM47.7054 108.288C46.6334 108.288 45.6974 108.12 44.8974 107.784C44.1134 107.432 43.4894 106.952 43.0254 106.344C42.5774 105.72 42.3134 105.008 42.2334 104.208H45.1134C45.1934 104.544 45.3374 104.856 45.5454 105.144C45.7534 105.416 46.0334 105.632 46.3854 105.792C46.7534 105.952 47.1854 106.032 47.6814 106.032C48.1614 106.032 48.5534 105.968 48.8574 105.84C49.1614 105.696 49.3854 105.512 49.5294 105.288C49.6734 105.064 49.7454 104.824 49.7454 104.568C49.7454 104.184 49.6414 103.888 49.4334 103.68C49.2254 103.472 48.9214 103.312 48.5214 103.2C48.1374 103.072 47.6734 102.952 47.1294 102.84C46.5534 102.728 45.9934 102.592 45.4494 102.432C44.9214 102.256 44.4414 102.04 44.0094 101.784C43.5934 101.528 43.2574 101.2 43.0014 100.8C42.7614 100.4 42.6414 99.912 42.6414 99.336C42.6414 98.632 42.8254 98 43.1934 97.44C43.5774 96.88 44.1214 96.44 44.8254 96.12C45.5454 95.784 46.4014 95.616 47.3934 95.616C48.8014 95.616 49.9214 95.944 50.7534 96.6C51.6014 97.24 52.0974 98.144 52.2414 99.312H49.5054C49.4254 98.864 49.2014 98.52 48.8334 98.28C48.4654 98.024 47.9774 97.896 47.3694 97.896C46.7454 97.896 46.2654 98.016 45.9294 98.256C45.6094 98.48 45.4494 98.784 45.4494 99.168C45.4494 99.408 45.5454 99.632 45.7374 99.84C45.9454 100.032 46.2414 100.2 46.6254 100.344C47.0094 100.472 47.4814 100.6 48.0414 100.728C48.9374 100.904 49.7294 101.112 50.4174 101.352C51.1054 101.592 51.6494 101.944 52.0494 102.408C52.4494 102.872 52.6494 103.528 52.6494 104.376C52.6654 105.144 52.4654 105.824 52.0494 106.416C51.6494 107.008 51.0814 107.472 50.3454 107.808C49.6094 108.128 48.7294 108.288 47.7054 108.288ZM61.0839 108.288C59.9319 108.288 58.8919 108.024 57.9639 107.496C57.0519 106.952 56.3319 106.208 55.8039 105.264C55.2919 104.304 55.0359 103.208 55.0359 101.976C55.0359 100.712 55.2999 99.608 55.8279 98.664C56.3559 97.704 57.0759 96.96 57.9879 96.432C58.9159 95.888 59.9559 95.616 61.1079 95.616C62.2599 95.616 63.2919 95.888 64.2039 96.432C65.1319 96.96 65.8519 97.696 66.3639 98.64C66.8919 99.584 67.1559 100.688 67.1559 101.952C67.1559 103.216 66.8919 104.32 66.3639 105.264C65.8359 106.208 65.1079 106.952 64.1799 107.496C63.2679 108.024 62.2359 108.288 61.0839 108.288ZM61.0839 105.816C61.6599 105.816 62.1799 105.672 62.6439 105.384C63.1239 105.096 63.5079 104.664 63.7959 104.088C64.0839 103.512 64.2279 102.8 64.2279 101.952C64.2279 101.104 64.0839 100.4 63.7959 99.84C63.5239 99.264 63.1479 98.832 62.6679 98.544C62.2039 98.256 61.6839 98.112 61.1079 98.112C60.5479 98.112 60.0279 98.256 59.5479 98.544C59.0679 98.832 58.6839 99.264 58.3959 99.84C58.1079 100.4 57.9639 101.104 57.9639 101.952C57.9639 102.8 58.1079 103.512 58.3959 104.088C58.6839 104.664 59.0599 105.096 59.5239 105.384C60.0039 105.672 60.5239 105.816 61.0839 105.816ZM75.7112 108.288C74.5272 108.288 73.4632 108.024 72.5192 107.496C71.5912 106.952 70.8632 106.208 70.3352 105.264C69.8232 104.304 69.5672 103.216 69.5672 102C69.5672 100.736 69.8232 99.632 70.3352 98.688C70.8632 97.728 71.5912 96.976 72.5192 96.432C73.4632 95.888 74.5352 95.616 75.7352 95.616C77.2392 95.616 78.5032 96.016 79.5272 96.816C80.5512 97.6 81.2072 98.68 81.4952 100.056H78.4712C78.3112 99.448 77.9752 98.968 77.4632 98.616C76.9672 98.264 76.3752 98.088 75.6872 98.088C75.0952 98.088 74.5512 98.24 74.0552 98.544C73.5752 98.848 73.1912 99.288 72.9032 99.864C72.6312 100.44 72.4952 101.136 72.4952 101.952C72.4952 102.576 72.5752 103.128 72.7352 103.608C72.8952 104.088 73.1192 104.496 73.4072 104.832C73.7112 105.152 74.0552 105.4 74.4392 105.576C74.8232 105.752 75.2392 105.84 75.6872 105.84C76.1512 105.84 76.5672 105.768 76.9352 105.624C77.3192 105.464 77.6392 105.232 77.8952 104.928C78.1672 104.624 78.3592 104.264 78.4712 103.848H81.4952C81.2072 105.192 80.5512 106.272 79.5272 107.088C78.5032 107.888 77.2312 108.288 75.7112 108.288ZM84.3921 108V95.904H87.2721V108H84.3921ZM85.8321 93.984C85.3041 93.984 84.8641 93.824 84.5121 93.504C84.1761 93.168 84.0081 92.76 84.0081 92.28C84.0081 91.784 84.1761 91.384 84.5121 91.08C84.8641 90.76 85.3041 90.6 85.8321 90.6C86.3601 90.6 86.7921 90.76 87.1281 91.08C87.4801 91.384 87.6561 91.784 87.6561 92.28C87.6561 92.76 87.4801 93.168 87.1281 93.504C86.7921 93.824 86.3601 93.984 85.8321 93.984ZM94.6322 108.288C93.6402 108.288 92.8162 108.12 92.1602 107.784C91.5042 107.448 91.0162 107 90.6962 106.44C90.3762 105.88 90.2162 105.272 90.2162 104.616C90.2162 103.848 90.4082 103.184 90.7922 102.624C91.1922 102.064 91.7762 101.632 92.5442 101.328C93.3122 101.008 94.2562 100.848 95.3762 100.848H98.4242C98.4242 100.208 98.3362 99.68 98.1602 99.264C97.9842 98.832 97.7122 98.512 97.3442 98.304C96.9762 98.096 96.5042 97.992 95.9282 97.992C95.2722 97.992 94.7122 98.144 94.2482 98.448C93.7842 98.736 93.4962 99.184 93.3842 99.792H90.5522C90.6482 98.928 90.9362 98.192 91.4162 97.584C91.8962 96.96 92.5282 96.48 93.3122 96.144C94.1122 95.792 94.9842 95.616 95.9282 95.616C97.0642 95.616 98.0322 95.816 98.8322 96.216C99.6322 96.6 100.24 97.16 100.656 97.896C101.088 98.616 101.304 99.488 101.304 100.512V108H98.8562L98.5682 106.056C98.4082 106.376 98.2002 106.672 97.9442 106.944C97.7042 107.216 97.4242 107.456 97.1042 107.664C96.7842 107.856 96.4162 108.008 96.0002 108.12C95.6002 108.232 95.1442 108.288 94.6322 108.288ZM95.2802 106.008C95.7442 106.008 96.1522 105.928 96.5042 105.768C96.8722 105.592 97.1842 105.352 97.4402 105.048C97.7122 104.728 97.9202 104.376 98.0642 103.992C98.2082 103.608 98.3042 103.2 98.3522 102.768V102.72H95.6882C95.1282 102.72 94.6642 102.792 94.2962 102.936C93.9282 103.064 93.6642 103.256 93.5042 103.512C93.3442 103.768 93.2642 104.064 93.2642 104.4C93.2642 104.736 93.3442 105.024 93.5042 105.264C93.6642 105.504 93.8962 105.688 94.2002 105.816C94.5042 105.944 94.8642 106.008 95.2802 106.008ZM109.45 108C108.634 108 107.922 107.872 107.314 107.616C106.722 107.36 106.258 106.936 105.922 106.344C105.586 105.752 105.418 104.952 105.418 103.944V98.328H103.354V95.904H105.418L105.754 92.712H108.298V95.904H111.586V98.328H108.298V103.944C108.298 104.552 108.426 104.976 108.682 105.216C108.954 105.44 109.402 105.552 110.026 105.552H111.514V108H109.45ZM119.655 108.288C118.455 108.288 117.399 108.032 116.487 107.52C115.575 106.992 114.863 106.256 114.351 105.312C113.839 104.368 113.583 103.28 113.583 102.048C113.583 100.768 113.831 99.648 114.327 98.688C114.839 97.728 115.551 96.976 116.463 96.432C117.391 95.888 118.463 95.616 119.679 95.616C120.863 95.616 121.895 95.88 122.775 96.408C123.655 96.936 124.335 97.648 124.815 98.544C125.295 99.424 125.535 100.416 125.535 101.52C125.535 101.68 125.535 101.856 125.535 102.048C125.535 102.24 125.519 102.44 125.487 102.648H115.647V100.8H122.631C122.599 99.92 122.303 99.232 121.743 98.736C121.183 98.224 120.487 97.968 119.655 97.968C119.063 97.968 118.519 98.104 118.023 98.376C117.527 98.648 117.135 99.056 116.847 99.6C116.559 100.128 116.415 100.8 116.415 101.616V102.312C116.415 103.064 116.551 103.712 116.823 104.256C117.111 104.8 117.495 105.216 117.975 105.504C118.471 105.776 119.023 105.912 119.631 105.912C120.303 105.912 120.855 105.768 121.287 105.48C121.735 105.192 122.063 104.808 122.271 104.328H125.199C124.975 105.08 124.607 105.76 124.095 106.368C123.583 106.96 122.951 107.432 122.199 107.784C121.447 108.12 120.599 108.288 119.655 108.288ZM134.149 108V91.2H139.573C141.525 91.2 143.133 91.544 144.397 92.232C145.677 92.92 146.621 93.896 147.229 95.16C147.853 96.408 148.165 97.896 148.165 99.624C148.165 101.32 147.853 102.8 147.229 104.064C146.621 105.312 145.677 106.28 144.397 106.968C143.133 107.656 141.525 108 139.573 108H134.149ZM137.029 105.552H139.429C140.885 105.552 142.029 105.32 142.861 104.856C143.709 104.376 144.309 103.696 144.661 102.816C145.029 101.92 145.213 100.856 145.213 99.624C145.213 98.376 145.029 97.312 144.661 96.432C144.309 95.536 143.709 94.848 142.861 94.368C142.029 93.872 140.885 93.624 139.429 93.624H137.029V105.552ZM154.913 108.288C153.921 108.288 153.097 108.12 152.441 107.784C151.785 107.448 151.297 107 150.977 106.44C150.657 105.88 150.497 105.272 150.497 104.616C150.497 103.848 150.689 103.184 151.073 102.624C151.473 102.064 152.057 101.632 152.825 101.328C153.593 101.008 154.537 100.848 155.657 100.848H158.705C158.705 100.208 158.617 99.68 158.441 99.264C158.265 98.832 157.993 98.512 157.625 98.304C157.257 98.096 156.785 97.992 156.209 97.992C155.553 97.992 154.993 98.144 154.529 98.448C154.065 98.736 153.777 99.184 153.665 99.792H150.833C150.929 98.928 151.217 98.192 151.697 97.584C152.177 96.96 152.809 96.48 153.593 96.144C154.393 95.792 155.265 95.616 156.209 95.616C157.345 95.616 158.313 95.816 159.113 96.216C159.913 96.6 160.521 97.16 160.937 97.896C161.369 98.616 161.585 99.488 161.585 100.512V108H159.137L158.849 106.056C158.689 106.376 158.481 106.672 158.225 106.944C157.985 107.216 157.705 107.456 157.385 107.664C157.065 107.856 156.697 108.008 156.281 108.12C155.881 108.232 155.425 108.288 154.913 108.288ZM155.561 106.008C156.025 106.008 156.433 105.928 156.785 105.768C157.153 105.592 157.465 105.352 157.721 105.048C157.993 104.728 158.201 104.376 158.345 103.992C158.489 103.608 158.585 103.2 158.633 102.768V102.72H155.969C155.409 102.72 154.945 102.792 154.577 102.936C154.209 103.064 153.945 103.256 153.785 103.512C153.625 103.768 153.545 104.064 153.545 104.4C153.545 104.736 153.625 105.024 153.785 105.264C153.945 105.504 154.177 105.688 154.481 105.816C154.785 105.944 155.145 106.008 155.561 106.008ZM169.731 108C168.915 108 168.203 107.872 167.595 107.616C167.003 107.36 166.539 106.936 166.203 106.344C165.867 105.752 165.699 104.952 165.699 103.944V98.328H163.635V95.904H165.699L166.035 92.712H168.579V95.904H171.867V98.328H168.579V103.944C168.579 104.552 168.707 104.976 168.963 105.216C169.235 105.44 169.683 105.552 170.307 105.552H171.795V108H169.731ZM178.609 108.288C177.617 108.288 176.793 108.12 176.137 107.784C175.481 107.448 174.993 107 174.673 106.44C174.353 105.88 174.193 105.272 174.193 104.616C174.193 103.848 174.385 103.184 174.769 102.624C175.169 102.064 175.753 101.632 176.521 101.328C177.289 101.008 178.233 100.848 179.353 100.848H182.401C182.401 100.208 182.313 99.68 182.137 99.264C181.961 98.832 181.689 98.512 181.321 98.304C180.953 98.096 180.481 97.992 179.905 97.992C179.249 97.992 178.689 98.144 178.225 98.448C177.761 98.736 177.473 99.184 177.361 99.792H174.529C174.625 98.928 174.913 98.192 175.393 97.584C175.873 96.96 176.505 96.48 177.289 96.144C178.089 95.792 178.961 95.616 179.905 95.616C181.041 95.616 182.009 95.816 182.809 96.216C183.609 96.6 184.217 97.16 184.633 97.896C185.065 98.616 185.281 99.488 185.281 100.512V108H182.833L182.545 106.056C182.385 106.376 182.177 106.672 181.921 106.944C181.681 107.216 181.401 107.456 181.081 107.664C180.761 107.856 180.393 108.008 179.977 108.12C179.577 108.232 179.121 108.288 178.609 108.288ZM179.257 106.008C179.721 106.008 180.129 105.928 180.481 105.768C180.849 105.592 181.161 105.352 181.417 105.048C181.689 104.728 181.897 104.376 182.041 103.992C182.185 103.608 182.281 103.2 182.329 102.768V102.72H179.665C179.105 102.72 178.641 102.792 178.273 102.936C177.905 103.064 177.641 103.256 177.481 103.512C177.321 103.768 177.241 104.064 177.241 104.4C177.241 104.736 177.321 105.024 177.481 105.264C177.641 105.504 177.873 105.688 178.177 105.816C178.481 105.944 178.841 106.008 179.257 106.008ZM199.881 108.288C198.681 108.288 197.625 108.032 196.713 107.52C195.801 106.992 195.089 106.256 194.577 105.312C194.065 104.368 193.809 103.28 193.809 102.048C193.809 100.768 194.057 99.648 194.553 98.688C195.065 97.728 195.777 96.976 196.689 96.432C197.617 95.888 198.689 95.616 199.905 95.616C201.089 95.616 202.121 95.88 203.001 96.408C203.881 96.936 204.561 97.648 205.041 98.544C205.521 99.424 205.761 100.416 205.761 101.52C205.761 101.68 205.761 101.856 205.761 102.048C205.761 102.24 205.745 102.44 205.713 102.648H195.873V100.8H202.857C202.825 99.92 202.529 99.232 201.969 98.736C201.409 98.224 200.713 97.968 199.881 97.968C199.289 97.968 198.745 98.104 198.249 98.376C197.753 98.648 197.361 99.056 197.073 99.6C196.785 100.128 196.641 100.8 196.641 101.616V102.312C196.641 103.064 196.777 103.712 197.049 104.256C197.337 104.8 197.721 105.216 198.201 105.504C198.697 105.776 199.249 105.912 199.857 105.912C200.529 105.912 201.081 105.768 201.513 105.48C201.961 105.192 202.289 104.808 202.497 104.328H205.425C205.201 105.08 204.833 105.76 204.321 106.368C203.809 106.96 203.177 107.432 202.425 107.784C201.673 108.12 200.825 108.288 199.881 108.288ZM208.421 108V95.904H210.965L211.181 97.92C211.549 97.216 212.077 96.656 212.765 96.24C213.453 95.824 214.269 95.616 215.213 95.616C216.189 95.616 217.021 95.824 217.709 96.24C218.397 96.64 218.925 97.232 219.293 98.016C219.677 98.8 219.869 99.776 219.869 100.944V108H216.989V101.208C216.989 100.2 216.765 99.424 216.317 98.88C215.869 98.336 215.205 98.064 214.325 98.064C213.749 98.064 213.229 98.2 212.765 98.472C212.317 98.744 211.957 99.144 211.685 99.672C211.429 100.184 211.301 100.808 211.301 101.544V108H208.421ZM227.993 113.568C226.857 113.568 225.857 113.424 224.993 113.136C224.145 112.864 223.481 112.44 223.001 111.864C222.537 111.304 222.305 110.6 222.305 109.752C222.305 109.256 222.425 108.768 222.665 108.288C222.921 107.824 223.297 107.392 223.793 106.992C224.305 106.576 224.953 106.216 225.737 105.912L227.009 107.304C226.241 107.576 225.705 107.904 225.401 108.288C225.097 108.672 224.945 109.064 224.945 109.464C224.945 109.88 225.073 110.224 225.329 110.496C225.601 110.784 225.961 111 226.409 111.144C226.873 111.288 227.393 111.36 227.969 111.36C228.529 111.36 229.017 111.28 229.433 111.12C229.849 110.976 230.169 110.768 230.393 110.496C230.633 110.224 230.753 109.896 230.753 109.512C230.753 109.032 230.585 108.64 230.249 108.336C229.913 108.048 229.249 107.872 228.257 107.808C227.409 107.744 226.665 107.656 226.025 107.544C225.385 107.416 224.833 107.272 224.369 107.112C223.921 106.952 223.537 106.776 223.217 106.584C222.897 106.376 222.633 106.168 222.425 105.96V105.408L224.945 102.768L227.081 103.464L224.249 106.224L224.993 104.832C225.153 104.944 225.313 105.048 225.473 105.144C225.649 105.24 225.865 105.328 226.121 105.408C226.393 105.472 226.745 105.536 227.177 105.6C227.609 105.664 228.169 105.728 228.857 105.792C229.929 105.872 230.801 106.064 231.473 106.368C232.145 106.672 232.641 107.08 232.961 107.592C233.281 108.104 233.441 108.72 233.441 109.44C233.441 110.144 233.241 110.808 232.841 111.432C232.457 112.056 231.865 112.568 231.065 112.968C230.265 113.368 229.241 113.568 227.993 113.568ZM227.993 104.376C226.985 104.376 226.113 104.184 225.377 103.8C224.657 103.4 224.105 102.872 223.721 102.216C223.337 101.544 223.145 100.808 223.145 100.008C223.145 99.192 223.337 98.456 223.721 97.8C224.105 97.144 224.657 96.616 225.377 96.216C226.113 95.816 226.985 95.616 227.993 95.616C229.001 95.616 229.865 95.816 230.585 96.216C231.305 96.616 231.857 97.144 232.241 97.8C232.625 98.456 232.817 99.192 232.817 100.008C232.817 100.808 232.625 101.544 232.241 102.216C231.857 102.872 231.305 103.4 230.585 103.8C229.865 104.184 229.001 104.376 227.993 104.376ZM227.993 102.144C228.681 102.144 229.233 101.96 229.649 101.592C230.065 101.224 230.273 100.696 230.273 100.008C230.273 99.32 230.065 98.8 229.649 98.448C229.233 98.08 228.681 97.896 227.993 97.896C227.305 97.896 226.745 98.08 226.313 98.448C225.881 98.8 225.665 99.32 225.665 100.008C225.665 100.696 225.881 101.224 226.313 101.592C226.745 101.96 227.305 102.144 227.993 102.144ZM229.985 98.016L229.433 95.904H234.401V97.704L229.985 98.016ZM237.064 108V95.904H239.944V108H237.064ZM238.504 93.984C237.976 93.984 237.536 93.824 237.184 93.504C236.848 93.168 236.68 92.76 236.68 92.28C236.68 91.784 236.848 91.384 237.184 91.08C237.536 90.76 237.976 90.6 238.504 90.6C239.032 90.6 239.464 90.76 239.8 91.08C240.152 91.384 240.328 91.784 240.328 92.28C240.328 92.76 240.152 93.168 239.8 93.504C239.464 93.824 239.032 93.984 238.504 93.984ZM243.272 108V95.904H245.816L246.032 97.92C246.4 97.216 246.928 96.656 247.616 96.24C248.304 95.824 249.12 95.616 250.064 95.616C251.04 95.616 251.872 95.824 252.56 96.24C253.248 96.64 253.776 97.232 254.144 98.016C254.528 98.8 254.72 99.776 254.72 100.944V108H251.84V101.208C251.84 100.2 251.616 99.424 251.168 98.88C250.72 98.336 250.056 98.064 249.176 98.064C248.6 98.064 248.08 98.2 247.616 98.472C247.168 98.744 246.808 99.144 246.536 99.672C246.28 100.184 246.152 100.808 246.152 101.544V108H243.272ZM263.42 108.288C262.22 108.288 261.164 108.032 260.252 107.52C259.34 106.992 258.628 106.256 258.116 105.312C257.604 104.368 257.348 103.28 257.348 102.048C257.348 100.768 257.596 99.648 258.092 98.688C258.604 97.728 259.316 96.976 260.228 96.432C261.156 95.888 262.228 95.616 263.444 95.616C264.628 95.616 265.66 95.88 266.54 96.408C267.42 96.936 268.1 97.648 268.58 98.544C269.06 99.424 269.3 100.416 269.3 101.52C269.3 101.68 269.3 101.856 269.3 102.048C269.3 102.24 269.284 102.44 269.252 102.648H259.412V100.8H266.396C266.364 99.92 266.068 99.232 265.508 98.736C264.948 98.224 264.252 97.968 263.42 97.968C262.828 97.968 262.284 98.104 261.788 98.376C261.292 98.648 260.9 99.056 260.612 99.6C260.324 100.128 260.18 100.8 260.18 101.616V102.312C260.18 103.064 260.316 103.712 260.588 104.256C260.876 104.8 261.26 105.216 261.74 105.504C262.236 105.776 262.788 105.912 263.396 105.912C264.068 105.912 264.62 105.768 265.052 105.48C265.5 105.192 265.828 104.808 266.036 104.328H268.964C268.74 105.08 268.372 105.76 267.86 106.368C267.348 106.96 266.716 107.432 265.964 107.784C265.212 108.12 264.364 108.288 263.42 108.288ZM277.624 108.288C276.424 108.288 275.368 108.032 274.456 107.52C273.544 106.992 272.832 106.256 272.32 105.312C271.808 104.368 271.552 103.28 271.552 102.048C271.552 100.768 271.8 99.648 272.296 98.688C272.808 97.728 273.52 96.976 274.432 96.432C275.36 95.888 276.432 95.616 277.648 95.616C278.832 95.616 279.864 95.88 280.744 96.408C281.624 96.936 282.304 97.648 282.784 98.544C283.264 99.424 283.504 100.416 283.504 101.52C283.504 101.68 283.504 101.856 283.504 102.048C283.504 102.24 283.488 102.44 283.456 102.648H273.616V100.8H280.6C280.568 99.92 280.272 99.232 279.712 98.736C279.152 98.224 278.456 97.968 277.624 97.968C277.032 97.968 276.488 98.104 275.992 98.376C275.496 98.648 275.104 99.056 274.816 99.6C274.528 100.128 274.384 100.8 274.384 101.616V102.312C274.384 103.064 274.52 103.712 274.792 104.256C275.08 104.8 275.464 105.216 275.944 105.504C276.44 105.776 276.992 105.912 277.6 105.912C278.272 105.912 278.824 105.768 279.256 105.48C279.704 105.192 280.032 104.808 280.24 104.328H283.168C282.944 105.08 282.576 105.76 282.064 106.368C281.552 106.96 280.92 107.432 280.168 107.784C279.416 108.12 278.568 108.288 277.624 108.288ZM286.163 108V95.904H288.731L288.995 98.16C289.283 97.632 289.643 97.184 290.075 96.816C290.507 96.432 291.011 96.136 291.587 95.928C292.179 95.72 292.827 95.616 293.531 95.616V98.664H292.523C292.043 98.664 291.587 98.728 291.155 98.856C290.723 98.968 290.347 99.16 290.027 99.432C289.723 99.688 289.483 100.048 289.307 100.512C289.131 100.96 289.043 101.528 289.043 102.216V108H286.163ZM301.681 108V95.904H304.561V108H301.681ZM303.121 93.984C302.593 93.984 302.153 93.824 301.801 93.504C301.465 93.168 301.297 92.76 301.297 92.28C301.297 91.784 301.465 91.384 301.801 91.08C302.153 90.76 302.593 90.6 303.121 90.6C303.649 90.6 304.081 90.76 304.417 91.08C304.769 91.384 304.945 91.784 304.945 92.28C304.945 92.76 304.769 93.168 304.417 93.504C304.081 93.824 303.649 93.984 303.121 93.984ZM307.889 108V95.904H310.433L310.649 97.92C311.017 97.216 311.545 96.656 312.233 96.24C312.921 95.824 313.737 95.616 314.681 95.616C315.657 95.616 316.489 95.824 317.177 96.24C317.865 96.64 318.393 97.232 318.761 98.016C319.145 98.8 319.337 99.776 319.337 100.944V108H316.457V101.208C316.457 100.2 316.233 99.424 315.785 98.88C315.337 98.336 314.673 98.064 313.793 98.064C313.217 98.064 312.697 98.2 312.233 98.472C311.785 98.744 311.425 99.144 311.153 99.672C310.897 100.184 310.769 100.808 310.769 101.544V108H307.889ZM333.969 108.288C332.753 108.288 331.673 108.072 330.729 107.64C329.785 107.208 329.049 106.592 328.521 105.792C327.993 104.992 327.721 104.04 327.705 102.936H330.753C330.753 103.496 330.881 104 331.137 104.448C331.409 104.88 331.777 105.224 332.241 105.48C332.721 105.736 333.297 105.864 333.969 105.864C334.545 105.864 335.041 105.776 335.457 105.6C335.889 105.408 336.217 105.144 336.441 104.808C336.681 104.456 336.801 104.048 336.801 103.584C336.801 103.056 336.673 102.624 336.417 102.288C336.177 101.936 335.841 101.64 335.409 101.4C334.977 101.16 334.481 100.952 333.921 100.776C333.361 100.584 332.769 100.384 332.145 100.176C330.817 99.728 329.817 99.16 329.145 98.472C328.473 97.768 328.137 96.832 328.137 95.664C328.137 94.688 328.369 93.848 328.833 93.144C329.297 92.44 329.945 91.896 330.777 91.512C331.625 91.112 332.601 90.912 333.705 90.912C334.825 90.912 335.801 91.112 336.633 91.512C337.481 91.912 338.145 92.472 338.625 93.192C339.121 93.896 339.377 94.744 339.393 95.736H336.321C336.305 95.32 336.193 94.936 335.985 94.584C335.777 94.216 335.473 93.92 335.073 93.696C334.689 93.456 334.217 93.336 333.657 93.336C333.177 93.32 332.745 93.4 332.361 93.576C331.993 93.736 331.697 93.976 331.473 94.296C331.265 94.6 331.161 94.984 331.161 95.448C331.161 95.896 331.257 96.272 331.449 96.576C331.657 96.864 331.953 97.112 332.337 97.32C332.721 97.512 333.169 97.696 333.681 97.872C334.193 98.048 334.753 98.24 335.361 98.448C336.193 98.72 336.945 99.056 337.617 99.456C338.305 99.84 338.849 100.344 339.249 100.968C339.649 101.592 339.849 102.4 339.849 103.392C339.849 104.256 339.625 105.064 339.177 105.816C338.729 106.552 338.073 107.152 337.209 107.616C336.345 108.064 335.265 108.288 333.969 108.288ZM354.433 110.52L348.457 101.16H351.769L357.841 110.52H354.433ZM350.305 108.288C348.689 108.288 347.257 107.928 346.009 107.208C344.777 106.472 343.809 105.456 343.105 104.16C342.401 102.848 342.049 101.328 342.049 99.6C342.049 97.888 342.401 96.384 343.105 95.088C343.809 93.776 344.777 92.752 346.009 92.016C347.257 91.28 348.689 90.912 350.305 90.912C351.953 90.912 353.401 91.28 354.649 92.016C355.897 92.752 356.865 93.776 357.553 95.088C358.241 96.384 358.585 97.888 358.585 99.6C358.585 101.328 358.241 102.848 357.553 104.16C356.865 105.456 355.897 106.472 354.649 107.208C353.401 107.928 351.953 108.288 350.305 108.288ZM350.329 105.696C351.401 105.696 352.337 105.456 353.137 104.976C353.937 104.48 354.553 103.776 354.985 102.864C355.417 101.952 355.633 100.864 355.633 99.6C355.633 98.336 355.417 97.248 354.985 96.336C354.553 95.424 353.937 94.728 353.137 94.248C352.337 93.752 351.401 93.504 350.329 93.504C349.257 93.504 348.321 93.752 347.521 94.248C346.721 94.728 346.097 95.424 345.649 96.336C345.217 97.248 345.001 98.336 345.001 99.6C345.001 100.864 345.217 101.952 345.649 102.864C346.097 103.776 346.721 104.48 347.521 104.976C348.321 105.456 349.257 105.696 350.329 105.696ZM361.303 108V90.72H364.183V108H361.303Z" fill="#03EF62"/>
<path d="M18.768 144.216C17.58 144.216 16.536 143.946 15.636 143.406C14.748 142.866 14.058 142.116 13.566 141.156C13.074 140.184 12.828 139.05 12.828 137.754C12.828 136.47 13.08 135.336 13.584 134.352C14.088 133.356 14.808 132.582 15.744 132.03C16.692 131.466 17.814 131.184 19.11 131.184C20.574 131.184 21.786 131.538 22.746 132.246C23.718 132.942 24.348 133.914 24.636 135.162H22.206C22.026 134.538 21.672 134.052 21.144 133.704C20.616 133.356 19.932 133.182 19.092 133.182C18.24 133.182 17.508 133.368 16.896 133.74C16.296 134.1 15.834 134.628 15.51 135.324C15.198 136.008 15.042 136.824 15.042 137.772C15.042 138.72 15.198 139.536 15.51 140.22C15.834 140.904 16.29 141.426 16.878 141.786C17.466 142.134 18.156 142.308 18.948 142.308C20.124 142.308 21.012 141.978 21.612 141.318C22.212 140.658 22.566 139.8 22.674 138.744H19.416V137.106H24.852V144H22.872L22.692 142.272C22.416 142.68 22.098 143.034 21.738 143.334C21.378 143.622 20.952 143.844 20.46 144C19.98 144.144 19.416 144.216 18.768 144.216ZM30.1343 144.216C29.3903 144.216 28.7723 144.09 28.2803 143.838C27.7883 143.586 27.4223 143.25 27.1823 142.83C26.9423 142.41 26.8223 141.954 26.8223 141.462C26.8223 140.886 26.9663 140.388 27.2543 139.968C27.5543 139.548 27.9923 139.224 28.5683 138.996C29.1443 138.756 29.8523 138.636 30.6923 138.636H32.9783C32.9783 138.156 32.9123 137.76 32.7803 137.448C32.6483 137.124 32.4443 136.884 32.1683 136.728C31.8923 136.572 31.5383 136.494 31.1063 136.494C30.6143 136.494 30.1943 136.608 29.8463 136.836C29.4983 137.052 29.2823 137.388 29.1983 137.844H27.0743C27.1463 137.196 27.3623 136.644 27.7223 136.188C28.0823 135.72 28.5563 135.36 29.1443 135.108C29.7443 134.844 30.3983 134.712 31.1063 134.712C31.9583 134.712 32.6843 134.862 33.2843 135.162C33.8843 135.45 34.3403 135.87 34.6523 136.422C34.9763 136.962 35.1383 137.616 35.1383 138.384V144H33.3023L33.0863 142.542C32.9663 142.782 32.8103 143.004 32.6183 143.208C32.4383 143.412 32.2283 143.592 31.9883 143.748C31.7483 143.892 31.4723 144.006 31.1603 144.09C30.8603 144.174 30.5183 144.216 30.1343 144.216ZM30.6203 142.506C30.9683 142.506 31.2743 142.446 31.5383 142.326C31.8143 142.194 32.0483 142.014 32.2403 141.786C32.4443 141.546 32.6003 141.282 32.7083 140.994C32.8163 140.706 32.8883 140.4 32.9243 140.076V140.04H30.9263C30.5063 140.04 30.1583 140.094 29.8823 140.202C29.6063 140.298 29.4083 140.442 29.2883 140.634C29.1683 140.826 29.1083 141.048 29.1083 141.3C29.1083 141.552 29.1683 141.768 29.2883 141.948C29.4083 142.128 29.5823 142.266 29.8103 142.362C30.0383 142.458 30.3083 142.506 30.6203 142.506ZM37.5362 144V134.928H39.6962V144H37.5362ZM38.6162 133.488C38.2202 133.488 37.8902 133.368 37.6262 133.128C37.3742 132.876 37.2482 132.57 37.2482 132.21C37.2482 131.838 37.3742 131.538 37.6262 131.31C37.8902 131.07 38.2202 130.95 38.6162 130.95C39.0122 130.95 39.3362 131.07 39.5882 131.31C39.8522 131.538 39.9842 131.838 39.9842 132.21C39.9842 132.57 39.8522 132.876 39.5882 133.128C39.3362 133.368 39.0122 133.488 38.6162 133.488ZM42.1923 144V134.928H44.1003L44.2623 136.44C44.5383 135.912 44.9343 135.492 45.4503 135.18C45.9663 134.868 46.5783 134.712 47.2863 134.712C48.0183 134.712 48.6423 134.868 49.1583 135.18C49.6743 135.48 50.0703 135.924 50.3463 136.512C50.6343 137.1 50.7783 137.832 50.7783 138.708V144H48.6183V138.906C48.6183 138.15 48.4503 137.568 48.1143 137.16C47.7783 136.752 47.2803 136.548 46.6203 136.548C46.1883 136.548 45.7983 136.65 45.4503 136.854C45.1143 137.058 44.8443 137.358 44.6403 137.754C44.4483 138.138 44.3523 138.606 44.3523 139.158V144H42.1923ZM57.4501 147.96V134.928H59.3761L59.6101 136.242C59.8021 135.978 60.0301 135.732 60.2941 135.504C60.5701 135.264 60.9001 135.072 61.2841 134.928C61.6801 134.784 62.1301 134.712 62.6341 134.712C63.4861 134.712 64.2361 134.922 64.8841 135.342C65.5441 135.762 66.0601 136.332 66.4321 137.052C66.8041 137.76 66.9901 138.57 66.9901 139.482C66.9901 140.394 66.7981 141.21 66.4141 141.93C66.0421 142.638 65.5261 143.196 64.8661 143.604C64.2181 144.012 63.4741 144.216 62.6341 144.216C61.9501 144.216 61.3501 144.09 60.8341 143.838C60.3301 143.574 59.9221 143.202 59.6101 142.722V147.96H57.4501ZM62.1841 142.344C62.6881 142.344 63.1381 142.224 63.5341 141.984C63.9301 141.744 64.2361 141.408 64.4521 140.976C64.6801 140.544 64.7941 140.046 64.7941 139.482C64.7941 138.906 64.6801 138.402 64.4521 137.97C64.2361 137.538 63.9301 137.202 63.5341 136.962C63.1381 136.722 62.6881 136.602 62.1841 136.602C61.6681 136.602 61.2121 136.722 60.8161 136.962C60.4321 137.202 60.1261 137.538 59.8981 137.97C59.6821 138.402 59.5741 138.9 59.5741 139.464C59.5741 140.04 59.6821 140.544 59.8981 140.976C60.1261 141.396 60.4321 141.732 60.8161 141.984C61.2121 142.224 61.6681 142.344 62.1841 142.344ZM69.0869 144V134.928H71.0129L71.2109 136.62C71.4269 136.224 71.6969 135.888 72.0209 135.612C72.3449 135.324 72.7229 135.102 73.1549 134.946C73.5989 134.79 74.0849 134.712 74.6129 134.712V136.998H73.8569C73.4969 136.998 73.1549 137.046 72.8309 137.142C72.5069 137.226 72.2249 137.37 71.9849 137.574C71.7569 137.766 71.5769 138.036 71.4449 138.384C71.3129 138.72 71.2469 139.146 71.2469 139.662V144H69.0869ZM79.2652 144.216C78.5212 144.216 77.9032 144.09 77.4112 143.838C76.9192 143.586 76.5532 143.25 76.3132 142.83C76.0732 142.41 75.9532 141.954 75.9532 141.462C75.9532 140.886 76.0972 140.388 76.3852 139.968C76.6852 139.548 77.1232 139.224 77.6992 138.996C78.2752 138.756 78.9832 138.636 79.8232 138.636H82.1092C82.1092 138.156 82.0432 137.76 81.9112 137.448C81.7792 137.124 81.5752 136.884 81.2992 136.728C81.0232 136.572 80.6692 136.494 80.2372 136.494C79.7452 136.494 79.3252 136.608 78.9772 136.836C78.6292 137.052 78.4132 137.388 78.3292 137.844H76.2052C76.2772 137.196 76.4932 136.644 76.8532 136.188C77.2132 135.72 77.6872 135.36 78.2752 135.108C78.8752 134.844 79.5292 134.712 80.2372 134.712C81.0892 134.712 81.8152 134.862 82.4152 135.162C83.0152 135.45 83.4712 135.87 83.7832 136.422C84.1072 136.962 84.2692 137.616 84.2692 138.384V144H82.4332L82.2172 142.542C82.0972 142.782 81.9412 143.004 81.7492 143.208C81.5692 143.412 81.3592 143.592 81.1192 143.748C80.8792 143.892 80.6032 144.006 80.2912 144.09C79.9912 144.174 79.6492 144.216 79.2652 144.216ZM79.7512 142.506C80.0992 142.506 80.4052 142.446 80.6692 142.326C80.9452 142.194 81.1792 142.014 81.3712 141.786C81.5752 141.546 81.7312 141.282 81.8392 140.994C81.9472 140.706 82.0192 140.4 82.0552 140.076V140.04H80.0572C79.6372 140.04 79.2892 140.094 79.0132 140.202C78.7372 140.298 78.5392 140.442 78.4192 140.634C78.2992 140.826 78.2392 141.048 78.2392 141.3C78.2392 141.552 78.2992 141.768 78.4192 141.948C78.5392 142.128 78.7132 142.266 78.9412 142.362C79.1692 142.458 79.4392 142.506 79.7512 142.506ZM90.8791 144.216C89.9911 144.216 89.1931 144.018 88.4851 143.622C87.7891 143.214 87.2431 142.656 86.8471 141.948C86.4631 141.228 86.2711 140.412 86.2711 139.5C86.2711 138.552 86.4631 137.724 86.8471 137.016C87.2431 136.296 87.7891 135.732 88.4851 135.324C89.1931 134.916 89.9971 134.712 90.8971 134.712C92.0251 134.712 92.9731 135.012 93.7411 135.612C94.5091 136.2 95.0011 137.01 95.2171 138.042H92.9491C92.8291 137.586 92.5771 137.226 92.1931 136.962C91.8211 136.698 91.3771 136.566 90.8611 136.566C90.4171 136.566 90.0091 136.68 89.6371 136.908C89.2771 137.136 88.9891 137.466 88.7731 137.898C88.5691 138.33 88.4671 138.852 88.4671 139.464C88.4671 139.932 88.5271 140.346 88.6471 140.706C88.7671 141.066 88.9351 141.372 89.1511 141.624C89.3791 141.864 89.6371 142.05 89.9251 142.182C90.2131 142.314 90.5251 142.38 90.8611 142.38C91.2091 142.38 91.5211 142.326 91.7971 142.218C92.0851 142.098 92.3251 141.924 92.5171 141.696C92.7211 141.468 92.8651 141.198 92.9491 140.886H95.2171C95.0011 141.894 94.5091 142.704 93.7411 143.316C92.9731 143.916 92.0191 144.216 90.8791 144.216ZM101.101 144C100.489 144 99.9551 143.904 99.4991 143.712C99.0551 143.52 98.7071 143.202 98.4551 142.758C98.2031 142.314 98.0771 141.714 98.0771 140.958V136.746H96.5291V134.928H98.0771L98.3291 132.534H100.237V134.928H102.703V136.746H100.237V140.958C100.237 141.414 100.333 141.732 100.525 141.912C100.729 142.08 101.065 142.164 101.533 142.164H102.649V144H101.101ZM104.825 144V134.928H106.985V144H104.825ZM105.905 133.488C105.509 133.488 105.179 133.368 104.915 133.128C104.663 132.876 104.537 132.57 104.537 132.21C104.537 131.838 104.663 131.538 104.915 131.31C105.179 131.07 105.509 130.95 105.905 130.95C106.301 130.95 106.625 131.07 106.877 131.31C107.141 131.538 107.273 131.838 107.273 132.21C107.273 132.57 107.141 132.876 106.877 133.128C106.625 133.368 106.301 133.488 105.905 133.488ZM113.783 144.216C112.895 144.216 112.097 144.018 111.389 143.622C110.693 143.214 110.147 142.656 109.751 141.948C109.367 141.228 109.175 140.412 109.175 139.5C109.175 138.552 109.367 137.724 109.751 137.016C110.147 136.296 110.693 135.732 111.389 135.324C112.097 134.916 112.901 134.712 113.801 134.712C114.929 134.712 115.877 135.012 116.645 135.612C117.413 136.2 117.905 137.01 118.121 138.042H115.853C115.733 137.586 115.481 137.226 115.097 136.962C114.725 136.698 114.281 136.566 113.765 136.566C113.321 136.566 112.913 136.68 112.541 136.908C112.181 137.136 111.893 137.466 111.677 137.898C111.473 138.33 111.371 138.852 111.371 139.464C111.371 139.932 111.431 140.346 111.551 140.706C111.671 141.066 111.839 141.372 112.055 141.624C112.283 141.864 112.541 142.05 112.829 142.182C113.117 142.314 113.429 142.38 113.765 142.38C114.113 142.38 114.425 142.326 114.701 142.218C114.989 142.098 115.229 141.924 115.421 141.696C115.625 141.468 115.769 141.198 115.853 140.886H118.121C117.905 141.894 117.413 142.704 116.645 143.316C115.877 143.916 114.923 144.216 113.783 144.216ZM123.228 144.216C122.484 144.216 121.866 144.09 121.374 143.838C120.882 143.586 120.516 143.25 120.276 142.83C120.036 142.41 119.916 141.954 119.916 141.462C119.916 140.886 120.06 140.388 120.348 139.968C120.648 139.548 121.086 139.224 121.662 138.996C122.238 138.756 122.946 138.636 123.786 138.636H126.072C126.072 138.156 126.006 137.76 125.874 137.448C125.742 137.124 125.538 136.884 125.262 136.728C124.986 136.572 124.632 136.494 124.2 136.494C123.708 136.494 123.288 136.608 122.94 136.836C122.592 137.052 122.376 137.388 122.292 137.844H120.168C120.24 137.196 120.456 136.644 120.816 136.188C121.176 135.72 121.65 135.36 122.238 135.108C122.838 134.844 123.492 134.712 124.2 134.712C125.052 134.712 125.778 134.862 126.378 135.162C126.978 135.45 127.434 135.87 127.746 136.422C128.07 136.962 128.232 137.616 128.232 138.384V144H126.396L126.18 142.542C126.06 142.782 125.904 143.004 125.712 143.208C125.532 143.412 125.322 143.592 125.082 143.748C124.842 143.892 124.566 144.006 124.254 144.09C123.954 144.174 123.612 144.216 123.228 144.216ZM123.714 142.506C124.062 142.506 124.368 142.446 124.632 142.326C124.908 142.194 125.142 142.014 125.334 141.786C125.538 141.546 125.694 141.282 125.802 140.994C125.91 140.706 125.982 140.4 126.018 140.076V140.04H124.02C123.6 140.04 123.252 140.094 122.976 140.202C122.7 140.298 122.502 140.442 122.382 140.634C122.262 140.826 122.202 141.048 122.202 141.3C122.202 141.552 122.262 141.768 122.382 141.948C122.502 142.128 122.676 142.266 122.904 142.362C123.132 142.458 123.402 142.506 123.714 142.506ZM130.54 144V131.04H132.7V144H130.54ZM145.355 144L141.341 139.032L144.941 134.928H147.515L143.033 139.914V138.24L148.055 144H145.355ZM139.505 144V131.04H141.665V144H139.505ZM149.507 144V134.928H151.415L151.577 136.44C151.853 135.912 152.249 135.492 152.765 135.18C153.281 134.868 153.893 134.712 154.601 134.712C155.333 134.712 155.957 134.868 156.473 135.18C156.989 135.48 157.385 135.924 157.661 136.512C157.949 137.1 158.093 137.832 158.093 138.708V144H155.933V138.906C155.933 138.15 155.765 137.568 155.429 137.16C155.093 136.752 154.595 136.548 153.935 136.548C153.503 136.548 153.113 136.65 152.765 136.854C152.429 137.058 152.159 137.358 151.955 137.754C151.763 138.138 151.667 138.606 151.667 139.158V144H149.507ZM164.6 144.216C163.736 144.216 162.956 144.018 162.26 143.622C161.576 143.214 161.036 142.656 160.64 141.948C160.256 141.228 160.064 140.406 160.064 139.482C160.064 138.534 160.262 137.706 160.658 136.998C161.054 136.278 161.594 135.72 162.278 135.324C162.974 134.916 163.754 134.712 164.618 134.712C165.482 134.712 166.256 134.916 166.94 135.324C167.636 135.72 168.176 136.272 168.56 136.98C168.956 137.688 169.154 138.516 169.154 139.464C169.154 140.412 168.956 141.24 168.56 141.948C168.164 142.656 167.618 143.214 166.922 143.622C166.238 144.018 165.464 144.216 164.6 144.216ZM164.6 142.362C165.032 142.362 165.422 142.254 165.77 142.038C166.13 141.822 166.418 141.498 166.634 141.066C166.85 140.634 166.958 140.1 166.958 139.464C166.958 138.828 166.85 138.3 166.634 137.88C166.43 137.448 166.148 137.124 165.788 136.908C165.44 136.692 165.05 136.584 164.618 136.584C164.198 136.584 163.808 136.692 163.448 136.908C163.088 137.124 162.8 137.448 162.584 137.88C162.368 138.3 162.26 138.828 162.26 139.464C162.26 140.1 162.368 140.634 162.584 141.066C162.8 141.498 163.082 141.822 163.43 142.038C163.79 142.254 164.18 142.362 164.6 142.362ZM172.752 144L170.088 134.928H172.23L174.084 142.38L173.688 142.362L175.758 134.928H178.17L180.258 142.362H179.862L181.716 134.928H183.858L181.194 144H178.962L176.748 136.314H177.198L174.984 144H172.752ZM185.401 144V131.04H187.561V144H185.401ZM194.22 144.216C193.32 144.216 192.528 144.024 191.844 143.64C191.16 143.244 190.626 142.692 190.242 141.984C189.858 141.276 189.666 140.46 189.666 139.536C189.666 138.576 189.852 137.736 190.224 137.016C190.608 136.296 191.142 135.732 191.826 135.324C192.522 134.916 193.326 134.712 194.238 134.712C195.126 134.712 195.9 134.91 196.56 135.306C197.22 135.702 197.73 136.236 198.09 136.908C198.45 137.568 198.63 138.312 198.63 139.14C198.63 139.26 198.63 139.392 198.63 139.536C198.63 139.68 198.618 139.83 198.594 139.986H191.214V138.6H196.452C196.428 137.94 196.206 137.424 195.786 137.052C195.366 136.668 194.844 136.476 194.22 136.476C193.776 136.476 193.368 136.578 192.996 136.782C192.624 136.986 192.33 137.292 192.114 137.7C191.898 138.096 191.79 138.6 191.79 139.212V139.734C191.79 140.298 191.892 140.784 192.096 141.192C192.312 141.6 192.6 141.912 192.96 142.128C193.332 142.332 193.746 142.434 194.202 142.434C194.706 142.434 195.12 142.326 195.444 142.11C195.78 141.894 196.026 141.606 196.182 141.246H198.378C198.21 141.81 197.934 142.32 197.55 142.776C197.166 143.22 196.692 143.574 196.128 143.838C195.564 144.09 194.928 144.216 194.22 144.216ZM204.656 144.216C203.816 144.216 203.066 144.012 202.406 143.604C201.746 143.196 201.23 142.632 200.858 141.912C200.498 141.192 200.318 140.376 200.318 139.464C200.318 138.552 200.504 137.742 200.876 137.034C201.248 136.314 201.764 135.75 202.424 135.342C203.096 134.922 203.852 134.712 204.692 134.712C205.376 134.712 205.97 134.844 206.474 135.108C206.99 135.36 207.398 135.72 207.698 136.188V131.04H209.858V144H207.914L207.698 142.686C207.506 142.95 207.272 143.202 206.996 143.442C206.72 143.67 206.39 143.856 206.006 144C205.622 144.144 205.172 144.216 204.656 144.216ZM205.106 142.344C205.622 142.344 206.078 142.224 206.474 141.984C206.87 141.732 207.176 141.39 207.392 140.958C207.608 140.526 207.716 140.028 207.716 139.464C207.716 138.9 207.608 138.402 207.392 137.97C207.176 137.538 206.87 137.202 206.474 136.962C206.078 136.722 205.622 136.602 205.106 136.602C204.614 136.602 204.17 136.722 203.774 136.962C203.378 137.202 203.066 137.538 202.838 137.97C202.622 138.402 202.514 138.9 202.514 139.464C202.514 140.028 202.622 140.526 202.838 140.958C203.066 141.39 203.378 141.732 203.774 141.984C204.17 142.224 204.614 142.344 205.106 142.344ZM216.077 148.176C215.225 148.176 214.475 148.068 213.827 147.852C213.191 147.648 212.693 147.33 212.333 146.898C211.985 146.478 211.811 145.95 211.811 145.314C211.811 144.942 211.901 144.576 212.081 144.216C212.273 143.868 212.555 143.544 212.927 143.244C213.311 142.932 213.797 142.662 214.385 142.434L215.339 143.478C214.763 143.682 214.361 143.928 214.133 144.216C213.905 144.504 213.791 144.798 213.791 145.098C213.791 145.41 213.887 145.668 214.079 145.872C214.283 146.088 214.553 146.25 214.889 146.358C215.237 146.466 215.627 146.52 216.059 146.52C216.479 146.52 216.845 146.46 217.157 146.34C217.469 146.232 217.709 146.076 217.877 145.872C218.057 145.668 218.147 145.422 218.147 145.134C218.147 144.774 218.021 144.48 217.769 144.252C217.517 144.036 217.019 143.904 216.275 143.856C215.639 143.808 215.081 143.742 214.601 143.658C214.121 143.562 213.707 143.454 213.359 143.334C213.023 143.214 212.735 143.082 212.495 142.938C212.255 142.782 212.057 142.626 211.901 142.47V142.056L213.791 140.076L215.393 140.598L213.269 142.668L213.827 141.624C213.947 141.708 214.067 141.786 214.187 141.858C214.319 141.93 214.481 141.996 214.673 142.056C214.877 142.104 215.141 142.152 215.465 142.2C215.789 142.248 216.209 142.296 216.725 142.344C217.529 142.404 218.183 142.548 218.687 142.776C219.191 143.004 219.563 143.31 219.803 143.694C220.043 144.078 220.163 144.54 220.163 145.08C220.163 145.608 220.013 146.106 219.713 146.574C219.425 147.042 218.981 147.426 218.381 147.726C217.781 148.026 217.013 148.176 216.077 148.176ZM216.077 141.282C215.321 141.282 214.667 141.138 214.115 140.85C213.575 140.55 213.161 140.154 212.873 139.662C212.585 139.158 212.441 138.606 212.441 138.006C212.441 137.394 212.585 136.842 212.873 136.35C213.161 135.858 213.575 135.462 214.115 135.162C214.667 134.862 215.321 134.712 216.077 134.712C216.833 134.712 217.481 134.862 218.021 135.162C218.561 135.462 218.975 135.858 219.263 136.35C219.551 136.842 219.695 137.394 219.695 138.006C219.695 138.606 219.551 139.158 219.263 139.662C218.975 140.154 218.561 140.55 218.021 140.85C217.481 141.138 216.833 141.282 216.077 141.282ZM216.077 139.608C216.593 139.608 217.007 139.47 217.319 139.194C217.631 138.918 217.787 138.522 217.787 138.006C217.787 137.49 217.631 137.1 217.319 136.836C217.007 136.56 216.593 136.422 216.077 136.422C215.561 136.422 215.141 136.56 214.817 136.836C214.493 137.1 214.331 137.49 214.331 138.006C214.331 138.522 214.493 138.918 214.817 139.194C215.141 139.47 215.561 139.608 216.077 139.608ZM217.571 136.512L217.157 134.928H220.883V136.278L217.571 136.512ZM226.686 144.216C225.786 144.216 224.994 144.024 224.31 143.64C223.626 143.244 223.092 142.692 222.708 141.984C222.324 141.276 222.132 140.46 222.132 139.536C222.132 138.576 222.318 137.736 222.69 137.016C223.074 136.296 223.608 135.732 224.292 135.324C224.988 134.916 225.792 134.712 226.704 134.712C227.592 134.712 228.366 134.91 229.026 135.306C229.686 135.702 230.196 136.236 230.556 136.908C230.916 137.568 231.096 138.312 231.096 139.14C231.096 139.26 231.096 139.392 231.096 139.536C231.096 139.68 231.084 139.83 231.06 139.986H223.68V138.6H228.918C228.894 137.94 228.672 137.424 228.252 137.052C227.832 136.668 227.31 136.476 226.686 136.476C226.242 136.476 225.834 136.578 225.462 136.782C225.09 136.986 224.796 137.292 224.58 137.7C224.364 138.096 224.256 138.6 224.256 139.212V139.734C224.256 140.298 224.358 140.784 224.562 141.192C224.778 141.6 225.066 141.912 225.426 142.128C225.798 142.332 226.212 142.434 226.668 142.434C227.172 142.434 227.586 142.326 227.91 142.11C228.246 141.894 228.492 141.606 228.648 141.246H230.844C230.676 141.81 230.4 142.32 230.016 142.776C229.632 143.22 229.158 143.574 228.594 143.838C228.03 144.09 227.394 144.216 226.686 144.216ZM237.575 144V134.928H239.735V144H237.575ZM238.655 133.488C238.259 133.488 237.929 133.368 237.665 133.128C237.413 132.876 237.287 132.57 237.287 132.21C237.287 131.838 237.413 131.538 237.665 131.31C237.929 131.07 238.259 130.95 238.655 130.95C239.051 130.95 239.375 131.07 239.627 131.31C239.891 131.538 240.023 131.838 240.023 132.21C240.023 132.57 239.891 132.876 239.627 133.128C239.375 133.368 239.051 133.488 238.655 133.488ZM242.231 144V134.928H244.139L244.301 136.44C244.577 135.912 244.973 135.492 245.489 135.18C246.005 134.868 246.617 134.712 247.325 134.712C248.057 134.712 248.681 134.868 249.197 135.18C249.713 135.48 250.109 135.924 250.385 136.512C250.673 137.1 250.817 137.832 250.817 138.708V144H248.657V138.906C248.657 138.15 248.489 137.568 248.153 137.16C247.817 136.752 247.319 136.548 246.659 136.548C246.227 136.548 245.837 136.65 245.489 136.854C245.153 137.058 244.883 137.358 244.679 137.754C244.487 138.138 244.391 138.606 244.391 139.158V144H242.231ZM257.561 144V131.4H265.697V133.146H259.721V136.764H265.157V138.474H259.721V142.254H265.697V144H257.561ZM270.901 144V133.146H267.193V131.4H276.751V133.146H273.043V144H270.901ZM278.532 144V131.4H280.692V142.308H286.308V144H278.532ZM287.439 146.214L288.465 141.822H290.571L288.861 146.214H287.439ZM301.113 144.216C300.201 144.216 299.391 144.054 298.683 143.73C297.975 143.406 297.423 142.944 297.027 142.344C296.631 141.744 296.427 141.03 296.415 140.202H298.701C298.701 140.622 298.797 141 298.989 141.336C299.193 141.66 299.469 141.918 299.817 142.11C300.177 142.302 300.609 142.398 301.113 142.398C301.545 142.398 301.917 142.332 302.229 142.2C302.553 142.056 302.799 141.858 302.967 141.606C303.147 141.342 303.237 141.036 303.237 140.688C303.237 140.292 303.141 139.968 302.949 139.716C302.769 139.452 302.517 139.23 302.193 139.05C301.869 138.87 301.497 138.714 301.077 138.582C300.657 138.438 300.213 138.288 299.745 138.132C298.749 137.796 297.999 137.37 297.495 136.854C296.991 136.326 296.739 135.624 296.739 134.748C296.739 134.016 296.913 133.386 297.261 132.858C297.609 132.33 298.095 131.922 298.719 131.634C299.355 131.334 300.087 131.184 300.915 131.184C301.755 131.184 302.487 131.334 303.111 131.634C303.747 131.934 304.245 132.354 304.605 132.894C304.977 133.422 305.169 134.058 305.181 134.802H302.877C302.865 134.49 302.781 134.202 302.625 133.938C302.469 133.662 302.241 133.44 301.941 133.272C301.653 133.092 301.299 133.002 300.879 133.002C300.519 132.99 300.195 133.05 299.907 133.182C299.631 133.302 299.409 133.482 299.241 133.722C299.085 133.95 299.007 134.238 299.007 134.586C299.007 134.922 299.079 135.204 299.223 135.432C299.379 135.648 299.601 135.834 299.889 135.99C300.177 136.134 300.513 136.272 300.897 136.404C301.281 136.536 301.701 136.68 302.157 136.836C302.781 137.04 303.345 137.292 303.849 137.592C304.365 137.88 304.773 138.258 305.073 138.726C305.373 139.194 305.523 139.8 305.523 140.544C305.523 141.192 305.355 141.798 305.019 142.362C304.683 142.914 304.191 143.364 303.543 143.712C302.895 144.048 302.085 144.216 301.113 144.216ZM316.462 145.89L311.98 138.87H314.464L319.018 145.89H316.462ZM313.366 144.216C312.154 144.216 311.08 143.946 310.144 143.406C309.22 142.854 308.494 142.092 307.966 141.12C307.438 140.136 307.174 138.996 307.174 137.7C307.174 136.416 307.438 135.288 307.966 134.316C308.494 133.332 309.22 132.564 310.144 132.012C311.08 131.46 312.154 131.184 313.366 131.184C314.602 131.184 315.688 131.46 316.624 132.012C317.56 132.564 318.286 133.332 318.802 134.316C319.318 135.288 319.576 136.416 319.576 137.7C319.576 138.996 319.318 140.136 318.802 141.12C318.286 142.092 317.56 142.854 316.624 143.406C315.688 143.946 314.602 144.216 313.366 144.216ZM313.384 142.272C314.188 142.272 314.89 142.092 315.49 141.732C316.09 141.36 316.552 140.832 316.876 140.148C317.2 139.464 317.362 138.648 317.362 137.7C317.362 136.752 317.2 135.936 316.876 135.252C316.552 134.568 316.09 134.046 315.49 133.686C314.89 133.314 314.188 133.128 313.384 133.128C312.58 133.128 311.878 133.314 311.278 133.686C310.678 134.046 310.21 134.568 309.874 135.252C309.55 135.936 309.388 136.752 309.388 137.7C309.388 138.648 309.55 139.464 309.874 140.148C310.21 140.832 310.678 141.36 311.278 141.732C311.878 142.092 312.58 142.272 313.384 142.272ZM321.614 144V131.04H323.774V144H321.614ZM333.603 144.216C332.859 144.216 332.241 144.09 331.749 143.838C331.257 143.586 330.891 143.25 330.651 142.83C330.411 142.41 330.291 141.954 330.291 141.462C330.291 140.886 330.435 140.388 330.723 139.968C331.023 139.548 331.461 139.224 332.037 138.996C332.613 138.756 333.321 138.636 334.161 138.636H336.447C336.447 138.156 336.381 137.76 336.249 137.448C336.117 137.124 335.913 136.884 335.637 136.728C335.361 136.572 335.007 136.494 334.575 136.494C334.083 136.494 333.663 136.608 333.315 136.836C332.967 137.052 332.751 137.388 332.667 137.844H330.543C330.615 137.196 330.831 136.644 331.191 136.188C331.551 135.72 332.025 135.36 332.613 135.108C333.213 134.844 333.867 134.712 334.575 134.712C335.427 134.712 336.153 134.862 336.753 135.162C337.353 135.45 337.809 135.87 338.121 136.422C338.445 136.962 338.607 137.616 338.607 138.384V144H336.771L336.555 142.542C336.435 142.782 336.279 143.004 336.087 143.208C335.907 143.412 335.697 143.592 335.457 143.748C335.217 143.892 334.941 144.006 334.629 144.09C334.329 144.174 333.987 144.216 333.603 144.216ZM334.089 142.506C334.437 142.506 334.743 142.446 335.007 142.326C335.283 142.194 335.517 142.014 335.709 141.786C335.913 141.546 336.069 141.282 336.177 140.994C336.285 140.706 336.357 140.4 336.393 140.076V140.04H334.395C333.975 140.04 333.627 140.094 333.351 140.202C333.075 140.298 332.877 140.442 332.757 140.634C332.637 140.826 332.577 141.048 332.577 141.3C332.577 141.552 332.637 141.768 332.757 141.948C332.877 142.128 333.051 142.266 333.279 142.362C333.507 142.458 333.777 142.506 334.089 142.506ZM340.915 144V134.928H342.823L342.985 136.44C343.261 135.912 343.657 135.492 344.173 135.18C344.689 134.868 345.301 134.712 346.009 134.712C346.741 134.712 347.365 134.868 347.881 135.18C348.397 135.48 348.793 135.924 349.069 136.512C349.357 137.1 349.501 137.832 349.501 138.708V144H347.341V138.906C347.341 138.15 347.173 137.568 346.837 137.16C346.501 136.752 346.003 136.548 345.343 136.548C344.911 136.548 344.521 136.65 344.173 136.854C343.837 137.058 343.567 137.358 343.363 137.754C343.171 138.138 343.075 138.606 343.075 139.158V144H340.915ZM355.81 144.216C354.97 144.216 354.22 144.012 353.56 143.604C352.9 143.196 352.384 142.632 352.012 141.912C351.652 141.192 351.472 140.376 351.472 139.464C351.472 138.552 351.658 137.742 352.03 137.034C352.402 136.314 352.918 135.75 353.578 135.342C354.25 134.922 355.006 134.712 355.846 134.712C356.53 134.712 357.124 134.844 357.628 135.108C358.144 135.36 358.552 135.72 358.852 136.188V131.04H361.012V144H359.068L358.852 142.686C358.66 142.95 358.426 143.202 358.15 143.442C357.874 143.67 357.544 143.856 357.16 144C356.776 144.144 356.326 144.216 355.81 144.216ZM356.26 142.344C356.776 142.344 357.232 142.224 357.628 141.984C358.024 141.732 358.33 141.39 358.546 140.958C358.762 140.526 358.87 140.028 358.87 139.464C358.87 138.9 358.762 138.402 358.546 137.97C358.33 137.538 358.024 137.202 357.628 136.962C357.232 136.722 356.776 136.602 356.26 136.602C355.768 136.602 355.324 136.722 354.928 136.962C354.532 137.202 354.22 137.538 353.992 137.97C353.776 138.402 353.668 138.9 353.668 139.464C353.668 140.028 353.776 140.526 353.992 140.958C354.22 141.39 354.532 141.732 354.928 141.984C355.324 142.224 355.768 142.344 356.26 142.344ZM17.238 172.216C16.398 172.216 15.648 172.012 14.988 171.604C14.328 171.196 13.812 170.632 13.44 169.912C13.08 169.192 12.9 168.376 12.9 167.464C12.9 166.552 13.086 165.742 13.458 165.034C13.83 164.314 14.346 163.75 15.006 163.342C15.678 162.922 16.434 162.712 17.274 162.712C17.958 162.712 18.552 162.844 19.056 163.108C19.572 163.36 19.98 163.72 20.28 164.188V159.04H22.44V172H20.496L20.28 170.686C20.088 170.95 19.854 171.202 19.578 171.442C19.302 171.67 18.972 171.856 18.588 172C18.204 172.144 17.754 172.216 17.238 172.216ZM17.688 170.344C18.204 170.344 18.66 170.224 19.056 169.984C19.452 169.732 19.758 169.39 19.974 168.958C20.19 168.526 20.298 168.028 20.298 167.464C20.298 166.9 20.19 166.402 19.974 165.97C19.758 165.538 19.452 165.202 19.056 164.962C18.66 164.722 18.204 164.602 17.688 164.602C17.196 164.602 16.752 164.722 16.356 164.962C15.96 165.202 15.648 165.538 15.42 165.97C15.204 166.402 15.096 166.9 15.096 167.464C15.096 168.028 15.204 168.526 15.42 168.958C15.648 169.39 15.96 169.732 16.356 169.984C16.752 170.224 17.196 170.344 17.688 170.344ZM27.8667 172.216C27.1227 172.216 26.5047 172.09 26.0127 171.838C25.5207 171.586 25.1547 171.25 24.9147 170.83C24.6747 170.41 24.5547 169.954 24.5547 169.462C24.5547 168.886 24.6987 168.388 24.9867 167.968C25.2867 167.548 25.7247 167.224 26.3007 166.996C26.8767 166.756 27.5847 166.636 28.4247 166.636H30.7107C30.7107 166.156 30.6447 165.76 30.5127 165.448C30.3807 165.124 30.1767 164.884 29.9007 164.728C29.6247 164.572 29.2707 164.494 28.8387 164.494C28.3467 164.494 27.9267 164.608 27.5787 164.836C27.2307 165.052 27.0147 165.388 26.9307 165.844H24.8067C24.8787 165.196 25.0947 164.644 25.4547 164.188C25.8147 163.72 26.2887 163.36 26.8767 163.108C27.4767 162.844 28.1307 162.712 28.8387 162.712C29.6907 162.712 30.4167 162.862 31.0167 163.162C31.6167 163.45 32.0727 163.87 32.3847 164.422C32.7087 164.962 32.8707 165.616 32.8707 166.384V172H31.0347L30.8187 170.542C30.6987 170.782 30.5427 171.004 30.3507 171.208C30.1707 171.412 29.9607 171.592 29.7207 171.748C29.4807 171.892 29.2047 172.006 28.8927 172.09C28.5927 172.174 28.2507 172.216 27.8667 172.216ZM28.3527 170.506C28.7007 170.506 29.0067 170.446 29.2707 170.326C29.5467 170.194 29.7807 170.014 29.9727 169.786C30.1767 169.546 30.3327 169.282 30.4407 168.994C30.5487 168.706 30.6207 168.4 30.6567 168.076V168.04H28.6587C28.2387 168.04 27.8907 168.094 27.6147 168.202C27.3387 168.298 27.1407 168.442 27.0207 168.634C26.9007 168.826 26.8407 169.048 26.8407 169.3C26.8407 169.552 26.9007 169.768 27.0207 169.948C27.1407 170.128 27.3147 170.266 27.5427 170.362C27.7707 170.458 28.0407 170.506 28.3527 170.506ZM38.98 172C38.368 172 37.834 171.904 37.378 171.712C36.934 171.52 36.586 171.202 36.334 170.758C36.082 170.314 35.956 169.714 35.956 168.958V164.746H34.408V162.928H35.956L36.208 160.534H38.116V162.928H40.582V164.746H38.116V168.958C38.116 169.414 38.212 169.732 38.404 169.912C38.608 170.08 38.944 170.164 39.412 170.164H40.528V172H38.98ZM45.6382 172.216C44.8942 172.216 44.2762 172.09 43.7842 171.838C43.2922 171.586 42.9262 171.25 42.6862 170.83C42.4462 170.41 42.3262 169.954 42.3262 169.462C42.3262 168.886 42.4702 168.388 42.7582 167.968C43.0582 167.548 43.4962 167.224 44.0722 166.996C44.6482 166.756 45.3562 166.636 46.1962 166.636H48.4822C48.4822 166.156 48.4162 165.76 48.2842 165.448C48.1522 165.124 47.9482 164.884 47.6722 164.728C47.3962 164.572 47.0422 164.494 46.6102 164.494C46.1182 164.494 45.6982 164.608 45.3502 164.836C45.0022 165.052 44.7862 165.388 44.7022 165.844H42.5782C42.6502 165.196 42.8662 164.644 43.2262 164.188C43.5862 163.72 44.0602 163.36 44.6482 163.108C45.2482 162.844 45.9022 162.712 46.6102 162.712C47.4622 162.712 48.1882 162.862 48.7882 163.162C49.3882 163.45 49.8442 163.87 50.1562 164.422C50.4802 164.962 50.6422 165.616 50.6422 166.384V172H48.8062L48.5902 170.542C48.4702 170.782 48.3142 171.004 48.1222 171.208C47.9422 171.412 47.7322 171.592 47.4922 171.748C47.2522 171.892 46.9762 172.006 46.6642 172.09C46.3642 172.174 46.0222 172.216 45.6382 172.216ZM46.1242 170.506C46.4722 170.506 46.7782 170.446 47.0422 170.326C47.3182 170.194 47.5522 170.014 47.7442 169.786C47.9482 169.546 48.1042 169.282 48.2122 168.994C48.3202 168.706 48.3922 168.4 48.4282 168.076V168.04H46.4302C46.0102 168.04 45.6622 168.094 45.3862 168.202C45.1102 168.298 44.9122 168.442 44.7922 168.634C44.6722 168.826 44.6122 169.048 44.6122 169.3C44.6122 169.552 44.6722 169.768 44.7922 169.948C44.9122 170.128 45.0862 170.266 45.3142 170.362C45.5422 170.458 45.8122 170.506 46.1242 170.506ZM59.1447 172L56.4807 162.928H58.6227L60.4767 170.38L60.0807 170.362L62.1507 162.928H64.5627L66.6507 170.362H66.2547L68.1087 162.928H70.2507L67.5867 172H65.3547L63.1407 164.314H63.5907L61.3767 172H59.1447ZM74.396 172.216C73.652 172.216 73.034 172.09 72.542 171.838C72.05 171.586 71.684 171.25 71.444 170.83C71.204 170.41 71.084 169.954 71.084 169.462C71.084 168.886 71.228 168.388 71.516 167.968C71.816 167.548 72.254 167.224 72.83 166.996C73.406 166.756 74.114 166.636 74.954 166.636H77.24C77.24 166.156 77.174 165.76 77.042 165.448C76.91 165.124 76.706 164.884 76.43 164.728C76.154 164.572 75.8 164.494 75.368 164.494C74.876 164.494 74.456 164.608 74.108 164.836C73.76 165.052 73.544 165.388 73.46 165.844H71.336C71.408 165.196 71.624 164.644 71.984 164.188C72.344 163.72 72.818 163.36 73.406 163.108C74.006 162.844 74.66 162.712 75.368 162.712C76.22 162.712 76.946 162.862 77.546 163.162C78.146 163.45 78.602 163.87 78.914 164.422C79.238 164.962 79.4 165.616 79.4 166.384V172H77.564L77.348 170.542C77.228 170.782 77.072 171.004 76.88 171.208C76.7 171.412 76.49 171.592 76.25 171.748C76.01 171.892 75.734 172.006 75.422 172.09C75.122 172.174 74.78 172.216 74.396 172.216ZM74.882 170.506C75.23 170.506 75.536 170.446 75.8 170.326C76.076 170.194 76.31 170.014 76.502 169.786C76.706 169.546 76.862 169.282 76.97 168.994C77.078 168.706 77.15 168.4 77.186 168.076V168.04H75.188C74.768 168.04 74.42 168.094 74.144 168.202C73.868 168.298 73.67 168.442 73.55 168.634C73.43 168.826 73.37 169.048 73.37 169.3C73.37 169.552 73.43 169.768 73.55 169.948C73.67 170.128 73.844 170.266 74.072 170.362C74.3 170.458 74.57 170.506 74.882 170.506ZM81.708 172V162.928H83.634L83.832 164.62C84.048 164.224 84.318 163.888 84.642 163.612C84.966 163.324 85.344 163.102 85.776 162.946C86.22 162.79 86.706 162.712 87.234 162.712V164.998H86.478C86.118 164.998 85.776 165.046 85.452 165.142C85.128 165.226 84.846 165.37 84.606 165.574C84.378 165.766 84.198 166.036 84.066 166.384C83.934 166.72 83.868 167.146 83.868 167.662V172H81.708ZM92.9169 172.216C92.0169 172.216 91.2249 172.024 90.5409 171.64C89.8569 171.244 89.3229 170.692 88.9389 169.984C88.5549 169.276 88.3629 168.46 88.3629 167.536C88.3629 166.576 88.5489 165.736 88.9209 165.016C89.3049 164.296 89.8389 163.732 90.5229 163.324C91.2189 162.916 92.0229 162.712 92.9349 162.712C93.8229 162.712 94.5969 162.91 95.2569 163.306C95.9169 163.702 96.4269 164.236 96.7869 164.908C97.1469 165.568 97.3269 166.312 97.3269 167.14C97.3269 167.26 97.3269 167.392 97.3269 167.536C97.3269 167.68 97.3149 167.83 97.2909 167.986H89.9109V166.6H95.1489C95.1249 165.94 94.9029 165.424 94.4829 165.052C94.0629 164.668 93.5409 164.476 92.9169 164.476C92.4729 164.476 92.0649 164.578 91.6929 164.782C91.3209 164.986 91.0269 165.292 90.8109 165.7C90.5949 166.096 90.4869 166.6 90.4869 167.212V167.734C90.4869 168.298 90.5889 168.784 90.7929 169.192C91.0089 169.6 91.2969 169.912 91.6569 170.128C92.0289 170.332 92.4429 170.434 92.8989 170.434C93.4029 170.434 93.8169 170.326 94.1409 170.11C94.4769 169.894 94.7229 169.606 94.8789 169.246H97.0749C96.9069 169.81 96.6309 170.32 96.2469 170.776C95.8629 171.22 95.3889 171.574 94.8249 171.838C94.2609 172.09 93.6249 172.216 92.9169 172.216ZM99.3212 172V159.04H101.481V164.332C101.781 163.84 102.189 163.45 102.705 163.162C103.221 162.862 103.803 162.712 104.451 162.712C105.195 162.712 105.825 162.868 106.341 163.18C106.857 163.48 107.247 163.93 107.511 164.53C107.787 165.118 107.925 165.856 107.925 166.744V172H105.783V166.942C105.783 166.162 105.615 165.568 105.279 165.16C104.955 164.752 104.457 164.548 103.785 164.548C103.353 164.548 102.963 164.656 102.615 164.872C102.267 165.076 101.991 165.376 101.787 165.772C101.583 166.156 101.481 166.63 101.481 167.194V172H99.3212ZM114.45 172.216C113.586 172.216 112.806 172.018 112.11 171.622C111.426 171.214 110.886 170.656 110.49 169.948C110.106 169.228 109.914 168.406 109.914 167.482C109.914 166.534 110.112 165.706 110.508 164.998C110.904 164.278 111.444 163.72 112.128 163.324C112.824 162.916 113.604 162.712 114.468 162.712C115.332 162.712 116.106 162.916 116.79 163.324C117.486 163.72 118.026 164.272 118.41 164.98C118.806 165.688 119.004 166.516 119.004 167.464C119.004 168.412 118.806 169.24 118.41 169.948C118.014 170.656 117.468 171.214 116.772 171.622C116.088 172.018 115.314 172.216 114.45 172.216ZM114.45 170.362C114.882 170.362 115.272 170.254 115.62 170.038C115.98 169.822 116.268 169.498 116.484 169.066C116.7 168.634 116.808 168.1 116.808 167.464C116.808 166.828 116.7 166.3 116.484 165.88C116.28 165.448 115.998 165.124 115.638 164.908C115.29 164.692 114.9 164.584 114.468 164.584C114.048 164.584 113.658 164.692 113.298 164.908C112.938 165.124 112.65 165.448 112.434 165.88C112.218 166.3 112.11 166.828 112.11 167.464C112.11 168.1 112.218 168.634 112.434 169.066C112.65 169.498 112.932 169.822 113.28 170.038C113.64 170.254 114.03 170.362 114.45 170.362ZM124.484 172.216C123.752 172.216 123.122 172.072 122.594 171.784C122.078 171.484 121.682 171.04 121.406 170.452C121.13 169.852 120.992 169.114 120.992 168.238V162.928H123.152V168.022C123.152 168.802 123.314 169.396 123.638 169.804C123.974 170.2 124.478 170.398 125.15 170.398C125.582 170.398 125.966 170.296 126.302 170.092C126.65 169.888 126.92 169.594 127.112 169.21C127.316 168.814 127.418 168.334 127.418 167.77V162.928H129.578V172H127.67L127.508 170.488C127.232 171.016 126.83 171.436 126.302 171.748C125.786 172.06 125.18 172.216 124.484 172.216ZM135.599 172.216C134.795 172.216 134.093 172.09 133.493 171.838C132.905 171.574 132.437 171.214 132.089 170.758C131.753 170.29 131.555 169.756 131.495 169.156H133.655C133.715 169.408 133.823 169.642 133.979 169.858C134.135 170.062 134.345 170.224 134.609 170.344C134.885 170.464 135.209 170.524 135.581 170.524C135.941 170.524 136.235 170.476 136.463 170.38C136.691 170.272 136.859 170.134 136.967 169.966C137.075 169.798 137.129 169.618 137.129 169.426C137.129 169.138 137.051 168.916 136.895 168.76C136.739 168.604 136.511 168.484 136.211 168.4C135.923 168.304 135.575 168.214 135.167 168.13C134.735 168.046 134.315 167.944 133.907 167.824C133.511 167.692 133.151 167.53 132.827 167.338C132.515 167.146 132.263 166.9 132.071 166.6C131.891 166.3 131.801 165.934 131.801 165.502C131.801 164.974 131.939 164.5 132.215 164.08C132.503 163.66 132.911 163.33 133.439 163.09C133.979 162.838 134.621 162.712 135.365 162.712C136.421 162.712 137.261 162.958 137.885 163.45C138.521 163.93 138.893 164.608 139.001 165.484H136.949C136.889 165.148 136.721 164.89 136.445 164.71C136.169 164.518 135.803 164.422 135.347 164.422C134.879 164.422 134.519 164.512 134.267 164.692C134.027 164.86 133.907 165.088 133.907 165.376C133.907 165.556 133.979 165.724 134.123 165.88C134.279 166.024 134.501 166.15 134.789 166.258C135.077 166.354 135.431 166.45 135.851 166.546C136.523 166.678 137.117 166.834 137.633 167.014C138.149 167.194 138.557 167.458 138.857 167.806C139.157 168.154 139.307 168.646 139.307 169.282C139.319 169.858 139.169 170.368 138.857 170.812C138.557 171.256 138.131 171.604 137.579 171.856C137.027 172.096 136.367 172.216 135.599 172.216ZM141.493 172V162.928H143.653V172H141.493ZM142.573 161.488C142.177 161.488 141.847 161.368 141.583 161.128C141.331 160.876 141.205 160.57 141.205 160.21C141.205 159.838 141.331 159.538 141.583 159.31C141.847 159.07 142.177 158.95 142.573 158.95C142.969 158.95 143.293 159.07 143.545 159.31C143.809 159.538 143.941 159.838 143.941 160.21C143.941 160.57 143.809 160.876 143.545 161.128C143.293 161.368 142.969 161.488 142.573 161.488ZM146.149 172V162.928H148.057L148.219 164.44C148.495 163.912 148.891 163.492 149.407 163.18C149.923 162.868 150.535 162.712 151.243 162.712C151.975 162.712 152.599 162.868 153.115 163.18C153.631 163.48 154.027 163.924 154.303 164.512C154.591 165.1 154.735 165.832 154.735 166.708V172H152.575V166.906C152.575 166.15 152.407 165.568 152.071 165.16C151.735 164.752 151.237 164.548 150.577 164.548C150.145 164.548 149.755 164.65 149.407 164.854C149.071 165.058 148.801 165.358 148.597 165.754C148.405 166.138 148.309 166.606 148.309 167.158V172H146.149ZM160.829 176.176C159.977 176.176 159.227 176.068 158.579 175.852C157.943 175.648 157.445 175.33 157.085 174.898C156.737 174.478 156.563 173.95 156.563 173.314C156.563 172.942 156.653 172.576 156.833 172.216C157.025 171.868 157.307 171.544 157.679 171.244C158.063 170.932 158.549 170.662 159.137 170.434L160.091 171.478C159.515 171.682 159.113 171.928 158.885 172.216C158.657 172.504 158.543 172.798 158.543 173.098C158.543 173.41 158.639 173.668 158.831 173.872C159.035 174.088 159.305 174.25 159.641 174.358C159.989 174.466 160.379 174.52 160.811 174.52C161.231 174.52 161.597 174.46 161.909 174.34C162.221 174.232 162.461 174.076 162.629 173.872C162.809 173.668 162.899 173.422 162.899 173.134C162.899 172.774 162.773 172.48 162.521 172.252C162.269 172.036 161.771 171.904 161.027 171.856C160.391 171.808 159.833 171.742 159.353 171.658C158.873 171.562 158.459 171.454 158.111 171.334C157.775 171.214 157.487 171.082 157.247 170.938C157.007 170.782 156.809 170.626 156.653 170.47V170.056L158.543 168.076L160.145 168.598L158.021 170.668L158.579 169.624C158.699 169.708 158.819 169.786 158.939 169.858C159.071 169.93 159.233 169.996 159.425 170.056C159.629 170.104 159.893 170.152 160.217 170.2C160.541 170.248 160.961 170.296 161.477 170.344C162.281 170.404 162.935 170.548 163.439 170.776C163.943 171.004 164.315 171.31 164.555 171.694C164.795 172.078 164.915 172.54 164.915 173.08C164.915 173.608 164.765 174.106 164.465 174.574C164.177 175.042 163.733 175.426 163.133 175.726C162.533 176.026 161.765 176.176 160.829 176.176ZM160.829 169.282C160.073 169.282 159.419 169.138 158.867 168.85C158.327 168.55 157.913 168.154 157.625 167.662C157.337 167.158 157.193 166.606 157.193 166.006C157.193 165.394 157.337 164.842 157.625 164.35C157.913 163.858 158.327 163.462 158.867 163.162C159.419 162.862 160.073 162.712 160.829 162.712C161.585 162.712 162.233 162.862 162.773 163.162C163.313 163.462 163.727 163.858 164.015 164.35C164.303 164.842 164.447 165.394 164.447 166.006C164.447 166.606 164.303 167.158 164.015 167.662C163.727 168.154 163.313 168.55 162.773 168.85C162.233 169.138 161.585 169.282 160.829 169.282ZM160.829 167.608C161.345 167.608 161.759 167.47 162.071 167.194C162.383 166.918 162.539 166.522 162.539 166.006C162.539 165.49 162.383 165.1 162.071 164.836C161.759 164.56 161.345 164.422 160.829 164.422C160.313 164.422 159.893 164.56 159.569 164.836C159.245 165.1 159.083 165.49 159.083 166.006C159.083 166.522 159.245 166.918 159.569 167.194C159.893 167.47 160.313 167.608 160.829 167.608ZM162.323 164.512L161.909 162.928H165.635V164.278L162.323 164.512ZM172.386 172V161.938C172.386 161.242 172.5 160.684 172.728 160.264C172.968 159.832 173.31 159.52 173.754 159.328C174.198 159.136 174.726 159.04 175.338 159.04H176.418V160.876H175.662C175.266 160.876 174.978 160.96 174.798 161.128C174.63 161.284 174.546 161.56 174.546 161.956V172H172.386ZM171.09 164.746V162.928H176.598V164.746H171.09ZM182.336 172.216C181.472 172.216 180.692 172.018 179.996 171.622C179.312 171.214 178.772 170.656 178.376 169.948C177.992 169.228 177.8 168.406 177.8 167.482C177.8 166.534 177.998 165.706 178.394 164.998C178.79 164.278 179.33 163.72 180.014 163.324C180.71 162.916 181.49 162.712 182.354 162.712C183.218 162.712 183.992 162.916 184.676 163.324C185.372 163.72 185.912 164.272 186.296 164.98C186.692 165.688 186.89 166.516 186.89 167.464C186.89 168.412 186.692 169.24 186.296 169.948C185.9 170.656 185.354 171.214 184.658 171.622C183.974 172.018 183.2 172.216 182.336 172.216ZM182.336 170.362C182.768 170.362 183.158 170.254 183.506 170.038C183.866 169.822 184.154 169.498 184.37 169.066C184.586 168.634 184.694 168.1 184.694 167.464C184.694 166.828 184.586 166.3 184.37 165.88C184.166 165.448 183.884 165.124 183.524 164.908C183.176 164.692 182.786 164.584 182.354 164.584C181.934 164.584 181.544 164.692 181.184 164.908C180.824 165.124 180.536 165.448 180.32 165.88C180.104 166.3 179.996 166.828 179.996 167.464C179.996 168.1 180.104 168.634 180.32 169.066C180.536 169.498 180.818 169.822 181.166 170.038C181.526 170.254 181.916 170.362 182.336 170.362ZM189.005 172V162.928H190.931L191.129 164.62C191.345 164.224 191.615 163.888 191.939 163.612C192.263 163.324 192.641 163.102 193.073 162.946C193.517 162.79 194.003 162.712 194.531 162.712V164.998H193.775C193.415 164.998 193.073 165.046 192.749 165.142C192.425 165.226 192.143 165.37 191.903 165.574C191.675 165.766 191.495 166.036 191.363 166.384C191.231 166.72 191.165 167.146 191.165 167.662V172H189.005ZM204.586 172.216C203.746 172.216 202.996 172.012 202.336 171.604C201.676 171.196 201.16 170.632 200.788 169.912C200.428 169.192 200.248 168.376 200.248 167.464C200.248 166.552 200.434 165.742 200.806 165.034C201.178 164.314 201.694 163.75 202.354 163.342C203.026 162.922 203.782 162.712 204.622 162.712C205.306 162.712 205.9 162.844 206.404 163.108C206.92 163.36 207.328 163.72 207.628 164.188V159.04H209.788V172H207.844L207.628 170.686C207.436 170.95 207.202 171.202 206.926 171.442C206.65 171.67 206.32 171.856 205.936 172C205.552 172.144 205.102 172.216 204.586 172.216ZM205.036 170.344C205.552 170.344 206.008 170.224 206.404 169.984C206.8 169.732 207.106 169.39 207.322 168.958C207.538 168.526 207.646 168.028 207.646 167.464C207.646 166.9 207.538 166.402 207.322 165.97C207.106 165.538 206.8 165.202 206.404 164.962C206.008 164.722 205.552 164.602 205.036 164.602C204.544 164.602 204.1 164.722 203.704 164.962C203.308 165.202 202.996 165.538 202.768 165.97C202.552 166.402 202.444 166.9 202.444 167.464C202.444 168.028 202.552 168.526 202.768 168.958C202.996 169.39 203.308 169.732 203.704 169.984C204.1 170.224 204.544 170.344 205.036 170.344ZM215.214 172.216C214.47 172.216 213.852 172.09 213.36 171.838C212.868 171.586 212.502 171.25 212.262 170.83C212.022 170.41 211.902 169.954 211.902 169.462C211.902 168.886 212.046 168.388 212.334 167.968C212.634 167.548 213.072 167.224 213.648 166.996C214.224 166.756 214.932 166.636 215.772 166.636H218.058C218.058 166.156 217.992 165.76 217.86 165.448C217.728 165.124 217.524 164.884 217.248 164.728C216.972 164.572 216.618 164.494 216.186 164.494C215.694 164.494 215.274 164.608 214.926 164.836C214.578 165.052 214.362 165.388 214.278 165.844H212.154C212.226 165.196 212.442 164.644 212.802 164.188C213.162 163.72 213.636 163.36 214.224 163.108C214.824 162.844 215.478 162.712 216.186 162.712C217.038 162.712 217.764 162.862 218.364 163.162C218.964 163.45 219.42 163.87 219.732 164.422C220.056 164.962 220.218 165.616 220.218 166.384V172H218.382L218.166 170.542C218.046 170.782 217.89 171.004 217.698 171.208C217.518 171.412 217.308 171.592 217.068 171.748C216.828 171.892 216.552 172.006 216.24 172.09C215.94 172.174 215.598 172.216 215.214 172.216ZM215.7 170.506C216.048 170.506 216.354 170.446 216.618 170.326C216.894 170.194 217.128 170.014 217.32 169.786C217.524 169.546 217.68 169.282 217.788 168.994C217.896 168.706 217.968 168.4 218.004 168.076V168.04H216.006C215.586 168.04 215.238 168.094 214.962 168.202C214.686 168.298 214.488 168.442 214.368 168.634C214.248 168.826 214.188 169.048 214.188 169.3C214.188 169.552 214.248 169.768 214.368 169.948C214.488 170.128 214.662 170.266 214.89 170.362C215.118 170.458 215.388 170.506 215.7 170.506ZM226.328 172C225.716 172 225.182 171.904 224.726 171.712C224.282 171.52 223.934 171.202 223.682 170.758C223.43 170.314 223.304 169.714 223.304 168.958V164.746H221.756V162.928H223.304L223.556 160.534H225.464V162.928H227.93V164.746H225.464V168.958C225.464 169.414 225.56 169.732 225.752 169.912C225.956 170.08 226.292 170.164 226.76 170.164H227.876V172H226.328ZM232.986 172.216C232.242 172.216 231.624 172.09 231.132 171.838C230.64 171.586 230.274 171.25 230.034 170.83C229.794 170.41 229.674 169.954 229.674 169.462C229.674 168.886 229.818 168.388 230.106 167.968C230.406 167.548 230.844 167.224 231.42 166.996C231.996 166.756 232.704 166.636 233.544 166.636H235.83C235.83 166.156 235.764 165.76 235.632 165.448C235.5 165.124 235.296 164.884 235.02 164.728C234.744 164.572 234.39 164.494 233.958 164.494C233.466 164.494 233.046 164.608 232.698 164.836C232.35 165.052 232.134 165.388 232.05 165.844H229.926C229.998 165.196 230.214 164.644 230.574 164.188C230.934 163.72 231.408 163.36 231.996 163.108C232.596 162.844 233.25 162.712 233.958 162.712C234.81 162.712 235.536 162.862 236.136 163.162C236.736 163.45 237.192 163.87 237.504 164.422C237.828 164.962 237.99 165.616 237.99 166.384V172H236.154L235.938 170.542C235.818 170.782 235.662 171.004 235.47 171.208C235.29 171.412 235.08 171.592 234.84 171.748C234.6 171.892 234.324 172.006 234.012 172.09C233.712 172.174 233.37 172.216 232.986 172.216ZM233.472 170.506C233.82 170.506 234.126 170.446 234.39 170.326C234.666 170.194 234.9 170.014 235.092 169.786C235.296 169.546 235.452 169.282 235.56 168.994C235.668 168.706 235.74 168.4 235.776 168.076V168.04H233.778C233.358 168.04 233.01 168.094 232.734 168.202C232.458 168.298 232.26 168.442 232.14 168.634C232.02 168.826 231.96 169.048 231.96 169.3C231.96 169.552 232.02 169.768 232.14 169.948C232.26 170.128 232.434 170.266 232.662 170.362C232.89 170.458 233.16 170.506 233.472 170.506ZM248.94 172.216C248.04 172.216 247.248 172.024 246.564 171.64C245.88 171.244 245.346 170.692 244.962 169.984C244.578 169.276 244.386 168.46 244.386 167.536C244.386 166.576 244.572 165.736 244.944 165.016C245.328 164.296 245.862 163.732 246.546 163.324C247.242 162.916 248.046 162.712 248.958 162.712C249.846 162.712 250.62 162.91 251.28 163.306C251.94 163.702 252.45 164.236 252.81 164.908C253.17 165.568 253.35 166.312 253.35 167.14C253.35 167.26 253.35 167.392 253.35 167.536C253.35 167.68 253.338 167.83 253.314 167.986H245.934V166.6H251.172C251.148 165.94 250.926 165.424 250.506 165.052C250.086 164.668 249.564 164.476 248.94 164.476C248.496 164.476 248.088 164.578 247.716 164.782C247.344 164.986 247.05 165.292 246.834 165.7C246.618 166.096 246.51 166.6 246.51 167.212V167.734C246.51 168.298 246.612 168.784 246.816 169.192C247.032 169.6 247.32 169.912 247.68 170.128C248.052 170.332 248.466 170.434 248.922 170.434C249.426 170.434 249.84 170.326 250.164 170.11C250.5 169.894 250.746 169.606 250.902 169.246H253.098C252.93 169.81 252.654 170.32 252.27 170.776C251.886 171.22 251.412 171.574 250.848 171.838C250.284 172.09 249.648 172.216 248.94 172.216ZM255.345 172V162.928H257.253L257.415 164.44C257.691 163.912 258.087 163.492 258.603 163.18C259.119 162.868 259.731 162.712 260.439 162.712C261.171 162.712 261.795 162.868 262.311 163.18C262.827 163.48 263.223 163.924 263.499 164.512C263.787 165.1 263.931 165.832 263.931 166.708V172H261.771V166.906C261.771 166.15 261.603 165.568 261.267 165.16C260.931 164.752 260.433 164.548 259.773 164.548C259.341 164.548 258.951 164.65 258.603 164.854C258.267 165.058 257.997 165.358 257.793 165.754C257.601 166.138 257.505 166.606 257.505 167.158V172H255.345ZM270.024 176.176C269.172 176.176 268.422 176.068 267.774 175.852C267.138 175.648 266.64 175.33 266.28 174.898C265.932 174.478 265.758 173.95 265.758 173.314C265.758 172.942 265.848 172.576 266.028 172.216C266.22 171.868 266.502 171.544 266.874 171.244C267.258 170.932 267.744 170.662 268.332 170.434L269.286 171.478C268.71 171.682 268.308 171.928 268.08 172.216C267.852 172.504 267.738 172.798 267.738 173.098C267.738 173.41 267.834 173.668 268.026 173.872C268.23 174.088 268.5 174.25 268.836 174.358C269.184 174.466 269.574 174.52 270.006 174.52C270.426 174.52 270.792 174.46 271.104 174.34C271.416 174.232 271.656 174.076 271.824 173.872C272.004 173.668 272.094 173.422 272.094 173.134C272.094 172.774 271.968 172.48 271.716 172.252C271.464 172.036 270.966 171.904 270.222 171.856C269.586 171.808 269.028 171.742 268.548 171.658C268.068 171.562 267.654 171.454 267.306 171.334C266.97 171.214 266.682 171.082 266.442 170.938C266.202 170.782 266.004 170.626 265.848 170.47V170.056L267.738 168.076L269.34 168.598L267.216 170.668L267.774 169.624C267.894 169.708 268.014 169.786 268.134 169.858C268.266 169.93 268.428 169.996 268.62 170.056C268.824 170.104 269.088 170.152 269.412 170.2C269.736 170.248 270.156 170.296 270.672 170.344C271.476 170.404 272.13 170.548 272.634 170.776C273.138 171.004 273.51 171.31 273.75 171.694C273.99 172.078 274.11 172.54 274.11 173.08C274.11 173.608 273.96 174.106 273.66 174.574C273.372 175.042 272.928 175.426 272.328 175.726C271.728 176.026 270.96 176.176 270.024 176.176ZM270.024 169.282C269.268 169.282 268.614 169.138 268.062 168.85C267.522 168.55 267.108 168.154 266.82 167.662C266.532 167.158 266.388 166.606 266.388 166.006C266.388 165.394 266.532 164.842 266.82 164.35C267.108 163.858 267.522 163.462 268.062 163.162C268.614 162.862 269.268 162.712 270.024 162.712C270.78 162.712 271.428 162.862 271.968 163.162C272.508 163.462 272.922 163.858 273.21 164.35C273.498 164.842 273.642 165.394 273.642 166.006C273.642 166.606 273.498 167.158 273.21 167.662C272.922 168.154 272.508 168.55 271.968 168.85C271.428 169.138 270.78 169.282 270.024 169.282ZM270.024 167.608C270.54 167.608 270.954 167.47 271.266 167.194C271.578 166.918 271.734 166.522 271.734 166.006C271.734 165.49 271.578 165.1 271.266 164.836C270.954 164.56 270.54 164.422 270.024 164.422C269.508 164.422 269.088 164.56 268.764 164.836C268.44 165.1 268.278 165.49 268.278 166.006C268.278 166.522 268.44 166.918 268.764 167.194C269.088 167.47 269.508 167.608 270.024 167.608ZM271.518 164.512L271.104 162.928H274.83V164.278L271.518 164.512ZM276.827 172V162.928H278.987V172H276.827ZM277.907 161.488C277.511 161.488 277.181 161.368 276.917 161.128C276.665 160.876 276.539 160.57 276.539 160.21C276.539 159.838 276.665 159.538 276.917 159.31C277.181 159.07 277.511 158.95 277.907 158.95C278.303 158.95 278.627 159.07 278.879 159.31C279.143 159.538 279.275 159.838 279.275 160.21C279.275 160.57 279.143 160.876 278.879 161.128C278.627 161.368 278.303 161.488 277.907 161.488ZM281.483 172V162.928H283.391L283.553 164.44C283.829 163.912 284.225 163.492 284.741 163.18C285.257 162.868 285.869 162.712 286.577 162.712C287.309 162.712 287.933 162.868 288.449 163.18C288.965 163.48 289.361 163.924 289.637 164.512C289.925 165.1 290.069 165.832 290.069 166.708V172H287.909V166.906C287.909 166.15 287.741 165.568 287.405 165.16C287.069 164.752 286.571 164.548 285.911 164.548C285.479 164.548 285.089 164.65 284.741 164.854C284.405 165.058 284.135 165.358 283.931 165.754C283.739 166.138 283.643 166.606 283.643 167.158V172H281.483ZM296.595 172.216C295.695 172.216 294.903 172.024 294.219 171.64C293.535 171.244 293.001 170.692 292.617 169.984C292.233 169.276 292.041 168.46 292.041 167.536C292.041 166.576 292.227 165.736 292.599 165.016C292.983 164.296 293.517 163.732 294.201 163.324C294.897 162.916 295.701 162.712 296.613 162.712C297.501 162.712 298.275 162.91 298.935 163.306C299.595 163.702 300.105 164.236 300.465 164.908C300.825 165.568 301.005 166.312 301.005 167.14C301.005 167.26 301.005 167.392 301.005 167.536C301.005 167.68 300.993 167.83 300.969 167.986H293.589V166.6H298.827C298.803 165.94 298.581 165.424 298.161 165.052C297.741 164.668 297.219 164.476 296.595 164.476C296.151 164.476 295.743 164.578 295.371 164.782C294.999 164.986 294.705 165.292 294.489 165.7C294.273 166.096 294.165 166.6 294.165 167.212V167.734C294.165 168.298 294.267 168.784 294.471 169.192C294.687 169.6 294.975 169.912 295.335 170.128C295.707 170.332 296.121 170.434 296.577 170.434C297.081 170.434 297.495 170.326 297.819 170.11C298.155 169.894 298.401 169.606 298.557 169.246H300.753C300.585 169.81 300.309 170.32 299.925 170.776C299.541 171.22 299.067 171.574 298.503 171.838C297.939 172.09 297.303 172.216 296.595 172.216ZM307.247 172.216C306.347 172.216 305.555 172.024 304.871 171.64C304.187 171.244 303.653 170.692 303.269 169.984C302.885 169.276 302.693 168.46 302.693 167.536C302.693 166.576 302.879 165.736 303.251 165.016C303.635 164.296 304.169 163.732 304.853 163.324C305.549 162.916 306.353 162.712 307.265 162.712C308.153 162.712 308.927 162.91 309.587 163.306C310.247 163.702 310.757 164.236 311.117 164.908C311.477 165.568 311.657 166.312 311.657 167.14C311.657 167.26 311.657 167.392 311.657 167.536C311.657 167.68 311.645 167.83 311.621 167.986H304.241V166.6H309.479C309.455 165.94 309.233 165.424 308.813 165.052C308.393 164.668 307.871 164.476 307.247 164.476C306.803 164.476 306.395 164.578 306.023 164.782C305.651 164.986 305.357 165.292 305.141 165.7C304.925 166.096 304.817 166.6 304.817 167.212V167.734C304.817 168.298 304.919 168.784 305.123 169.192C305.339 169.6 305.627 169.912 305.987 170.128C306.359 170.332 306.773 170.434 307.229 170.434C307.733 170.434 308.147 170.326 308.471 170.11C308.807 169.894 309.053 169.606 309.209 169.246H311.405C311.237 169.81 310.961 170.32 310.577 170.776C310.193 171.22 309.719 171.574 309.155 171.838C308.591 172.09 307.955 172.216 307.247 172.216ZM313.651 172V162.928H315.577L315.775 164.62C315.991 164.224 316.261 163.888 316.585 163.612C316.909 163.324 317.287 163.102 317.719 162.946C318.163 162.79 318.649 162.712 319.177 162.712V164.998H318.421C318.061 164.998 317.719 165.046 317.395 165.142C317.071 165.226 316.789 165.37 316.549 165.574C316.321 165.766 316.141 166.036 316.009 166.384C315.877 166.72 315.811 167.146 315.811 167.662V172H313.651ZM320.896 172V162.928H323.056V172H320.896ZM321.976 161.488C321.58 161.488 321.25 161.368 320.986 161.128C320.734 160.876 320.608 160.57 320.608 160.21C320.608 159.838 320.734 159.538 320.986 159.31C321.25 159.07 321.58 158.95 321.976 158.95C322.372 158.95 322.696 159.07 322.948 159.31C323.212 159.538 323.344 159.838 323.344 160.21C323.344 160.57 323.212 160.876 322.948 161.128C322.696 161.368 322.372 161.488 321.976 161.488ZM325.552 172V162.928H327.46L327.622 164.44C327.898 163.912 328.294 163.492 328.81 163.18C329.326 162.868 329.938 162.712 330.646 162.712C331.378 162.712 332.002 162.868 332.518 163.18C333.034 163.48 333.43 163.924 333.706 164.512C333.994 165.1 334.138 165.832 334.138 166.708V172H331.978V166.906C331.978 166.15 331.81 165.568 331.474 165.16C331.138 164.752 330.64 164.548 329.98 164.548C329.548 164.548 329.158 164.65 328.81 164.854C328.474 165.058 328.204 165.358 328 165.754C327.808 166.138 327.712 166.606 327.712 167.158V172H325.552ZM340.231 176.176C339.379 176.176 338.629 176.068 337.981 175.852C337.345 175.648 336.847 175.33 336.487 174.898C336.139 174.478 335.965 173.95 335.965 173.314C335.965 172.942 336.055 172.576 336.235 172.216C336.427 171.868 336.709 171.544 337.081 171.244C337.465 170.932 337.951 170.662 338.539 170.434L339.493 171.478C338.917 171.682 338.515 171.928 338.287 172.216C338.059 172.504 337.945 172.798 337.945 173.098C337.945 173.41 338.041 173.668 338.233 173.872C338.437 174.088 338.707 174.25 339.043 174.358C339.391 174.466 339.781 174.52 340.213 174.52C340.633 174.52 340.999 174.46 341.311 174.34C341.623 174.232 341.863 174.076 342.031 173.872C342.211 173.668 342.301 173.422 342.301 173.134C342.301 172.774 342.175 172.48 341.923 172.252C341.671 172.036 341.173 171.904 340.429 171.856C339.793 171.808 339.235 171.742 338.755 171.658C338.275 171.562 337.861 171.454 337.513 171.334C337.177 171.214 336.889 171.082 336.649 170.938C336.409 170.782 336.211 170.626 336.055 170.47V170.056L337.945 168.076L339.547 168.598L337.423 170.668L337.981 169.624C338.101 169.708 338.221 169.786 338.341 169.858C338.473 169.93 338.635 169.996 338.827 170.056C339.031 170.104 339.295 170.152 339.619 170.2C339.943 170.248 340.363 170.296 340.879 170.344C341.683 170.404 342.337 170.548 342.841 170.776C343.345 171.004 343.717 171.31 343.957 171.694C344.197 172.078 344.317 172.54 344.317 173.08C344.317 173.608 344.167 174.106 343.867 174.574C343.579 175.042 343.135 175.426 342.535 175.726C341.935 176.026 341.167 176.176 340.231 176.176ZM340.231 169.282C339.475 169.282 338.821 169.138 338.269 168.85C337.729 168.55 337.315 168.154 337.027 167.662C336.739 167.158 336.595 166.606 336.595 166.006C336.595 165.394 336.739 164.842 337.027 164.35C337.315 163.858 337.729 163.462 338.269 163.162C338.821 162.862 339.475 162.712 340.231 162.712C340.987 162.712 341.635 162.862 342.175 163.162C342.715 163.462 343.129 163.858 343.417 164.35C343.705 164.842 343.849 165.394 343.849 166.006C343.849 166.606 343.705 167.158 343.417 167.662C343.129 168.154 342.715 168.55 342.175 168.85C341.635 169.138 340.987 169.282 340.231 169.282ZM340.231 167.608C340.747 167.608 341.161 167.47 341.473 167.194C341.785 166.918 341.941 166.522 341.941 166.006C341.941 165.49 341.785 165.1 341.473 164.836C341.161 164.56 340.747 164.422 340.231 164.422C339.715 164.422 339.295 164.56 338.971 164.836C338.647 165.1 338.485 165.49 338.485 166.006C338.485 166.522 338.647 166.918 338.971 167.194C339.295 167.47 339.715 167.608 340.231 167.608ZM341.725 164.512L341.311 162.928H345.037V164.278L341.725 164.512Z" fill="white"/>
</svg>
