<svg width="20" height="20" viewBox="0 0 20 20" fill="none" xmlns="http://www.w3.org/2000/svg">
<path d="M9.99167 1.66675C5.39167 1.66675 1.66667 5.40008 1.66667 10.0001C1.66667 14.6001 5.39167 18.3334 9.99167 18.3334C14.6 18.3334 18.3333 14.6001 18.3333 10.0001C18.3333 5.40008 14.6 1.66675 9.99167 1.66675ZM10 16.6667C6.31667 16.6667 3.33333 13.6834 3.33333 10.0001C3.33333 6.31675 6.31667 3.33341 10 3.33341C13.6833 3.33341 16.6667 6.31675 16.6667 10.0001C16.6667 13.6834 13.6833 16.6667 10 16.6667ZM10.4167 5.83341H9.16667V10.8334L13.5417 13.4584L14.1667 12.4334L10.4167 10.2084V5.83341Z" fill="#94A3B8"/>
</svg>
