<svg width="20" height="20" viewBox="0 0 20 20" fill="none" xmlns="http://www.w3.org/2000/svg">
<path d="M3.33333 17.5001C2.875 17.5001 2.48264 17.3369 2.15625 17.0105C1.82986 16.6841 1.66667 16.2917 1.66667 15.8334V6.66675C1.66667 6.20841 1.82986 5.81605 2.15625 5.48966C2.48264 5.16328 2.875 5.00008 3.33333 5.00008H6.66667V3.33341C6.66667 2.87508 6.82986 2.48272 7.15625 2.15633C7.48264 1.82994 7.875 1.66675 8.33333 1.66675H11.6667C12.125 1.66675 12.5174 1.82994 12.8437 2.15633C13.1701 2.48272 13.3333 2.87508 13.3333 3.33341V5.00008H16.6667C17.125 5.00008 17.5174 5.16328 17.8437 5.48966C18.1701 5.81605 18.3333 6.20841 18.3333 6.66675V15.8334C18.3333 16.2917 18.1701 16.6841 17.8437 17.0105C17.5174 17.3369 17.125 17.5001 16.6667 17.5001H3.33333ZM8.33333 5.00008H11.6667V3.33341H8.33333V5.00008ZM5 6.66675H3.33333V15.8334H5V6.66675ZM13.3333 15.8334V6.66675H6.66667V15.8334H13.3333ZM15 6.66675V15.8334H16.6667V6.66675H15Z" fill="#94A3B8"/>
</svg>
