<svg width="20" height="20" viewBox="0 0 20 20" fill="none" xmlns="http://www.w3.org/2000/svg">
<path d="M10 4.91659C10.9667 4.91659 11.75 5.69992 11.75 6.66659C11.75 7.63325 10.9667 8.41659 10 8.41659C9.03333 8.41659 8.25 7.63325 8.25 6.66659C8.25 5.69992 9.03333 4.91659 10 4.91659ZM10 12.4166C12.475 12.4166 15.0833 13.6333 15.0833 14.1666V15.0833H4.91667V14.1666C4.91667 13.6333 7.525 12.4166 10 12.4166ZM10 3.33325C8.15833 3.33325 6.66667 4.82492 6.66667 6.66659C6.66667 8.50825 8.15833 9.99992 10 9.99992C11.8417 9.99992 13.3333 8.50825 13.3333 6.66659C13.3333 4.82492 11.8417 3.33325 10 3.33325ZM10 10.8333C7.775 10.8333 3.33333 11.9499 3.33333 14.1666V16.6666H16.6667V14.1666C16.6667 11.9499 12.225 10.8333 10 10.8333Z" fill="#94A3B8"/>
</svg>
