<svg width="24" height="24" viewBox="0 0 24 24" fill="none" xmlns="http://www.w3.org/2000/svg">
<path d="M8.136 17V5.8H12.52C13.3093 5.8 13.9653 5.92267 14.488 6.168C15.0213 6.41333 15.4213 6.75467 15.688 7.192C15.9547 7.61867 16.088 8.11467 16.088 8.68C16.088 9.24533 15.9653 9.72 15.72 10.104C15.4747 10.488 15.1493 10.7813 14.744 10.984C14.3493 11.1867 13.9173 11.3093 13.448 11.352L13.688 11.176C14.1893 11.1867 14.6373 11.32 15.032 11.576C15.4373 11.832 15.7573 12.168 15.992 12.584C16.2267 12.9893 16.344 13.4427 16.344 13.944C16.344 14.5307 16.2 15.0587 15.912 15.528C15.6347 15.9867 15.224 16.3493 14.68 16.616C14.136 16.872 13.4693 17 12.68 17H8.136ZM10.056 15.432H12.392C13.0213 15.432 13.512 15.2827 13.864 14.984C14.216 14.6853 14.392 14.2693 14.392 13.736C14.392 13.2027 14.2107 12.7813 13.848 12.472C13.4853 12.152 12.9893 11.992 12.36 11.992H10.056V15.432ZM10.056 10.536H12.248C12.8667 10.536 13.336 10.3973 13.656 10.12C13.976 9.832 14.136 9.43733 14.136 8.936C14.136 8.44533 13.976 8.06133 13.656 7.784C13.336 7.496 12.8613 7.352 12.232 7.352H10.056V10.536Z" fill="#64748B"/>
</svg>
