<svg width="24" height="24" viewBox="0 0 24 24" fill="none" xmlns="http://www.w3.org/2000/svg">
<path d="M14.6967 7.55469C14.2757 7.55469 13.872 7.68476 13.5743 7.91628C13.2766 8.14781 13.1094 8.46183 13.1094 8.78926V12.493C13.1094 12.8204 13.2766 13.1344 13.5743 13.3659C13.872 13.5975 14.2757 13.7275 14.6967 13.7275C14.9072 13.7275 15.109 13.7926 15.2579 13.9083C15.4067 14.0241 15.4903 14.1811 15.4903 14.3448V14.9621C15.4903 15.2895 15.3231 15.6035 15.0254 15.8351C14.7277 16.0666 14.324 16.1967 13.903 16.1967C13.6925 16.1967 13.4907 16.2617 13.3418 16.3775C13.193 16.4932 13.1094 16.6502 13.1094 16.8139V18.0485C13.1094 18.2122 13.193 18.3692 13.3418 18.485C13.4907 18.6008 13.6925 18.6658 13.903 18.6658C15.166 18.6658 16.3772 18.2756 17.2702 17.581C18.1632 16.8864 18.6649 15.9444 18.6649 14.9621V8.78926C18.6649 8.46183 18.4977 8.14781 18.2 7.91628C17.9023 7.68476 17.4986 7.55469 17.0776 7.55469H14.6967Z" stroke="#64748B" stroke-width="1.66667" stroke-linecap="round" stroke-linejoin="round"/>
<path d="M5.80996 7.55469C5.38898 7.55469 4.98524 7.68476 4.68757 7.91628C4.38989 8.14781 4.22266 8.46183 4.22266 8.78926V12.493C4.22266 12.8204 4.38989 13.1344 4.68757 13.3659C4.98524 13.5975 5.38898 13.7275 5.80996 13.7275C6.02045 13.7275 6.22232 13.7926 6.37115 13.9083C6.51999 14.0241 6.60361 14.1811 6.60361 14.3448V14.9621C6.60361 15.2895 6.43638 15.6035 6.1387 15.8351C5.84102 16.0666 5.43729 16.1967 5.01631 16.1967C4.80582 16.1967 4.60395 16.2617 4.45511 16.3775C4.30627 16.4932 4.22266 16.6502 4.22266 16.8139V18.0485C4.22266 18.2122 4.30627 18.3692 4.45511 18.485C4.60395 18.6008 4.80582 18.6658 5.01631 18.6658C6.27924 18.6658 7.49045 18.2756 8.38348 17.581C9.27651 16.8864 9.77821 15.9444 9.77821 14.9621V8.78926C9.77821 8.46183 9.61098 8.14781 9.3133 7.91628C9.01562 7.68476 8.61189 7.55469 8.19091 7.55469H5.80996Z" stroke="#64748B" stroke-width="1.66667" stroke-linecap="round" stroke-linejoin="round"/>
</svg>
