<svg width="25" height="24" viewBox="0 0 25 24" fill="none" xmlns="http://www.w3.org/2000/svg">
<path d="M12.646 17.192C11.8353 17.192 11.1153 17.048 10.486 16.76C9.85667 16.472 9.366 16.0613 9.014 15.528C8.662 14.9947 8.48067 14.36 8.47 13.624H10.502C10.502 13.9973 10.5873 14.3333 10.758 14.632C10.9393 14.92 11.1847 15.1493 11.494 15.32C11.814 15.4907 12.198 15.576 12.646 15.576C13.03 15.576 13.3607 15.5173 13.638 15.4C13.926 15.272 14.1447 15.096 14.294 14.872C14.454 14.6373 14.534 14.3653 14.534 14.056C14.534 13.704 14.4487 13.416 14.278 13.192C14.118 12.9573 13.894 12.76 13.606 12.6C13.318 12.44 12.9873 12.3013 12.614 12.184C12.2407 12.056 11.846 11.9227 11.43 11.784C10.5447 11.4853 9.878 11.1067 9.43 10.648C8.982 10.1787 8.758 9.55467 8.758 8.776C8.758 8.12533 8.91267 7.56533 9.222 7.096C9.53133 6.62667 9.96333 6.264 10.518 6.008C11.0833 5.74133 11.734 5.608 12.47 5.608C13.2167 5.608 13.8673 5.74133 14.422 6.008C14.9873 6.27467 15.43 6.648 15.75 7.128C16.0807 7.59733 16.2513 8.16267 16.262 8.824H14.214C14.2033 8.54667 14.1287 8.29067 13.99 8.056C13.8513 7.81067 13.6487 7.61333 13.382 7.464C13.126 7.304 12.8113 7.224 12.438 7.224C12.118 7.21333 11.83 7.26667 11.574 7.384C11.3287 7.49067 11.1313 7.65067 10.982 7.864C10.8433 8.06667 10.774 8.32267 10.774 8.632C10.774 8.93067 10.838 9.18133 10.966 9.384C11.1047 9.576 11.302 9.74133 11.558 9.88C11.814 10.008 12.1127 10.1307 12.454 10.248C12.7953 10.3653 13.1687 10.4933 13.574 10.632C14.1287 10.8133 14.63 11.0373 15.078 11.304C15.5367 11.56 15.8993 11.896 16.166 12.312C16.4327 12.728 16.566 13.2667 16.566 13.928C16.566 14.504 16.4167 15.0427 16.118 15.544C15.8193 16.0347 15.382 16.4347 14.806 16.744C14.23 17.0427 13.51 17.192 12.646 17.192Z" fill="#64748B"/>
</svg>
