<svg width="25" height="24" viewBox="0 0 25 24" fill="none" xmlns="http://www.w3.org/2000/svg">
<path d="M16.8335 19.5H6.3335C5.93567 19.5 5.55414 19.342 5.27284 19.0607C4.99153 18.7794 4.8335 18.3978 4.8335 18V7.5" stroke="#64748B" stroke-width="1.5" stroke-linecap="round" stroke-linejoin="round"/>
<path d="M19.8335 12.7494L18.8615 11.7774C18.5225 11.4384 18.0628 11.248 17.5835 11.248C17.1042 11.248 16.6445 11.4384 16.3055 11.7774L11.5835 16.4994" stroke="#64748B" stroke-width="1.5" stroke-linecap="round" stroke-linejoin="round"/>
<path d="M12.3335 10.5C13.1619 10.5 13.8335 9.82843 13.8335 9C13.8335 8.17157 13.1619 7.5 12.3335 7.5C11.5051 7.5 10.8335 8.17157 10.8335 9C10.8335 9.82843 11.5051 10.5 12.3335 10.5Z" stroke="#64748B" stroke-width="1.5" stroke-linecap="round" stroke-linejoin="round"/>
<path d="M18.3335 4.5H9.3335C8.50507 4.5 7.8335 5.17157 7.8335 6V15C7.8335 15.8284 8.50507 16.5 9.3335 16.5H18.3335C19.1619 16.5 19.8335 15.8284 19.8335 15V6C19.8335 5.17157 19.1619 4.5 18.3335 4.5Z" stroke="#64748B" stroke-width="1.5" stroke-linecap="round" stroke-linejoin="round"/>
</svg>
